mtllib WetFloorSign_01_2k.mtl
o WetFloorSign_01
usemtl WetFloorSign_01
v -0.15002739429473877 0.0061793942004442215 0.16525013744831085
v -0.15002739429473877 0.0061793942004442215 0.16525013744831085
v -0.15002739429473877 0.0061793942004442215 0.16525013744831085
v 0.15002736449241638 0.006179407238960266 0.16525021195411682
v 0.15002736449241638 0.006179407238960266 0.16525021195411682
v 0.15002736449241638 0.006179407238960266 0.16525021195411682
v -0.15002740919589996 0.5395533442497253 0.026773536577820778
v -0.15002740919589996 0.5395533442497253 0.026773536577820778
v 0.150027334690094 0.5395533442497253 0.026773571968078613
v 0.150027334690094 0.5395533442497253 0.026773571968078613
v -0.06858503073453903 0.00617939792573452 0.16525013744831085
v -0.06858503073453903 0.00617939792573452 0.16525013744831085
v 0.06858499348163605 0.006179444491863251 0.16525018215179443
v 0.06858499348163605 0.006179444491863251 0.16525018215179443
v 0.05010463297367096 0.5395533442497253 0.026773562654852867
v 0.05010463297367096 0.5395533442497253 0.026773562654852867
v -0.0501050129532814 0.5395533442497253 0.026773538440465927
v -0.0501050129532814 0.5395533442497253 0.026773538440465927
v -0.15002737939357758 0.09468100219964981 0.1422729790210724
v -0.15002737939357758 0.09468100219964981 0.1422729790210724
v -0.06858503073453903 0.09468100965023041 0.14227302372455597
v -0.06858503073453903 0.09468100965023041 0.14227302372455597
v 0.06858499348163605 0.09468100965023041 0.14227305352687836
v 0.06858499348163605 0.09468100965023041 0.14227305352687836
v 0.15002736449241638 0.094681017100811 0.14227305352687836
v 0.15002736449241638 0.094681017100811 0.14227305352687836
v -0.11243211477994919 0.6317126154899597 0.0027775319758802652
v -0.11243211477994919 0.6317126154899597 0.0027775319758802652
v -0.11243211477994919 0.6317126154899597 0.0027775319758802652
v 0.11243190616369247 0.6317126154899597 0.002777556888759136
v 0.11243190616369247 0.6317126154899597 0.002777556888759136
v 0.11243190616369247 0.6317126154899597 0.002777556888759136
v 0.05702904984354973 0.6317126154899597 0.0027775501366704702
v 0.05702904984354973 0.6317126154899597 0.0027775501366704702
v -0.05537877976894379 0.6317126154899597 0.0027775310445576906
v -0.05537877976894379 0.6317126154899597 0.0027775310445576906
v -0.1278649866580963 0.5939164161682129 0.01265960093587637
v -0.1278649866580963 0.5939164161682129 0.01265960093587637
v 0.05566926300525665 0.5939164161682129 0.012659626081585884
v 0.05566926300525665 0.5939164161682129 0.012659626081585884
v 0.05566926300525665 0.5939164161682129 0.012659626081585884
v 0.05566926300525665 0.5939164161682129 0.012659626081585884
v -0.15002737939357758 0.00216864887624979 0.14980165660381317
v -0.15002737939357758 0.00216864887624979 0.14980165660381317
v -0.15002737939357758 0.00216864887624979 0.14980165660381317
v 0.15002736449241638 0.002168661914765835 0.14980173110961914
v 0.15002736449241638 0.002168661914765835 0.14980173110961914
v 0.15002736449241638 0.002168661914765835 0.14980173110961914
v -0.15002743899822235 0.5355425477027893 0.011325052939355373
v -0.15002743899822235 0.5355425477027893 0.011325052939355373
v 0.150027334690094 0.5355425477027893 0.011325088329613209
v 0.150027334690094 0.5355425477027893 0.011325088329613209
v -0.06858503073453903 0.002168611390516162 0.14980164170265198
v -0.06858503073453903 0.002168611390516162 0.14980164170265198
v 0.06858500093221664 0.00216865842230618 0.14980170130729675
v 0.06858500093221664 0.00216865842230618 0.14980170130729675
v 0.05010463297367096 0.5355425477027893 0.011325079016387463
v 0.05010463297367096 0.5355425477027893 0.011325079016387463
v -0.0501050129532814 0.5355425477027893 0.01132505014538765
v -0.0501050129532814 0.5355425477027893 0.01132505014538765
v -0.15002737939357758 0.09067019075155258 0.1268244981765747
v -0.15002737939357758 0.09067019075155258 0.1268244981765747
v -0.06858503818511963 0.09067019820213318 0.1268245279788971
v -0.06858503818511963 0.09067019820213318 0.1268245279788971
v 0.06858497112989426 0.09067019820213318 0.12682457268238068
v 0.06858497112989426 0.09067019820213318 0.12682457268238068
v 0.15002736449241638 0.09067020565271378 0.12682457268238068
v 0.15002736449241638 0.09067020565271378 0.12682457268238068
v 0.12786483764648438 0.5939164161682129 0.01265963725745678
v 0.12786483764648438 0.5939164161682129 0.01265963725745678
v -0.055669624358415604 0.5939164161682129 0.012659603729844093
v -0.055669624358415604 0.5939164161682129 0.012659603729844093
v -0.055669624358415604 0.5939164161682129 0.012659603729844093
v -0.055669624358415604 0.5939164161682129 0.012659603729844093
v 0.055570147931575775 0.5889372825622559 -0.0025374696124345064
v 0.055570147931575775 0.5889372825622559 -0.0025374696124345064
v 0.055570147931575775 0.5889372825622559 -0.0025374696124345064
v 0.1282595843076706 0.5889372825622559 -0.002537455875426531
v 0.1282595843076706 0.5889372825622559 -0.002537455875426531
v -0.12825971841812134 0.5889372825622559 -0.0025374966207891703
v -0.12825971841812134 0.5889372825622559 -0.0025374966207891703
v -0.12825971841812134 0.5889372825622559 -0.0025374966207891703
v -0.05557050555944443 0.5889372825622559 -0.0025374905671924353
v -0.05557050555944443 0.5889372825622559 -0.0025374905671924353
v -0.05557050555944443 0.5889372825622559 -0.0025374905671924353
v -0.05557050555944443 0.5889372825622559 -0.0025374905671924353
v -8.295546081171778e-7 0.6317126154899597 0.0027775405906140804
v -8.295546081171778e-7 0.6317126154899597 0.0027775405906140804
v -8.304005518766644e-7 0.6000370383262634 0.010371668264269829
v -8.304005518766644e-7 0.6000370383262634 0.010371668264269829
v 0.051057036966085434 0.5948846936225891 0.012408231385052204
v 0.051057036966085434 0.5948846936225891 0.012408231385052204
v -0.04796552285552025 0.5948846936225891 0.012408211827278137
v -0.04796552285552025 0.5948846936225891 0.012408211827278137
v 0.02725652977824211 0.6317126154899597 0.0027775445487350225
v 0.02725652977824211 0.6317126154899597 0.0027775445487350225
v 0.04084547236561775 0.6000370383262634 0.010371677577495575
v 0.04084547236561775 0.6000370383262634 0.010371677577495575
v 0.030633892863988876 0.5971574187278748 0.012408227659761906
v 0.030633892863988876 0.5971574187278748 0.012408227659761906
v 0.020422324538230896 0.6000370383262634 0.010371672920882702
v 0.020422324538230896 0.6000370383262634 0.010371672920882702
v 0.010210744105279446 0.5971574187278748 0.012408222071826458
v 0.010210744105279446 0.5971574187278748 0.012408222071826458
v -0.03837258368730545 0.6000370383262634 0.010371660813689232
v -0.03837258368730545 0.6000370383262634 0.010371660813689232
v -0.028779644519090652 0.5971574187278748 0.012408213689923286
v -0.028779644519090652 0.5971574187278748 0.012408213689923286
v -0.019186707213521004 0.6000370383262634 0.010371663607656956
v -0.019186707213521004 0.6000370383262634 0.010371663607656956
v -0.009593769907951355 0.5971574187278748 0.012408219277858734
v -0.009593769907951355 0.5971574187278748 0.012408219277858734
v -0.025606919080018997 0.6317126154899597 0.0027775366324931383
v -0.025606919080018997 0.6317126154899597 0.0027775366324931383
v -0.05223209038376808 0.5914860963821411 -0.014004369266331196
v -0.05223209038376808 0.5914860963821411 -0.014004369266331196
v -0.05223209038376808 0.5914860963821411 -0.014004369266331196
v -0.05223209038376808 0.5914860963821411 -0.014004369266331196
v -0.05223209038376808 0.5914860963821411 -0.014004369266331196
v -0.05186666175723076 0.6276102662086487 -0.014004363678395748
v 0.000036273930163588375 0.5915166735649109 -0.014004362747073174
v 0.006972049362957478 0.6276103258132935 -0.014004355296492577
v -0.11351413279771805 0.6276102662086487 -0.014004371128976345
v -0.11351413279771805 0.6276102662086487 -0.014004371128976345
v 0.05348740518093109 0.6276102662086487 -0.014004350639879704
v 0.028746308758854866 0.5915130376815796 -0.014004359021782875
v 0.12661112844944 0.5914860963821411 -0.01400434784591198
v 0.12661112844944 0.5914860963821411 -0.01400434784591198
v 0.12661112844944 0.5914860963821411 -0.01400434784591198
v 0.15002740919589996 0.006179448217153549 -0.1932590901851654
v 0.15002740919589996 0.006179448217153549 -0.1932590901851654
v 0.15002740919589996 0.006179448217153549 -0.1932590901851654
v 0.15002740919589996 0.09468105435371399 -0.17028190195560455
v 0.15002740919589996 0.09468105435371399 -0.17028190195560455
v 0.06858503073453903 0.09468104690313339 -0.17028190195560455
v 0.06858503073453903 0.09468104690313339 -0.17028190195560455
v 0.06858503818511963 0.006179526448249817 -0.1932590752840042
v 0.06858503818511963 0.006179526448249817 -0.1932590752840042
v -0.1500273495912552 0.006179435178637505 -0.1932590901851654
v -0.1500273495912552 0.006179435178637505 -0.1932590901851654
v -0.1500273495912552 0.006179435178637505 -0.1932590901851654
v -0.06858497858047485 0.006179438903927803 -0.1932590752840042
v -0.06858497858047485 0.006179438903927803 -0.1932590752840042
v -0.06858499348163605 0.09468104690313339 -0.17028191685676575
v -0.06858499348163605 0.09468104690313339 -0.17028191685676575
v -0.150027334690094 0.0946810394525528 -0.17028191685676575
v -0.150027334690094 0.0946810394525528 -0.17028191685676575
v 0.11243190616369247 0.6317126154899597 -0.030786242336034775
v 0.11243190616369247 0.6317126154899597 -0.030786242336034775
v 0.11243190616369247 0.6317126154899597 -0.030786242336034775
v 0.057029061019420624 0.6317126154899597 -0.03078624978661537
v 0.057029061019420624 0.6317126154899597 -0.03078624978661537
v 0.05566927418112755 0.5939164161682129 -0.040668338537216187
v 0.05566927418112755 0.5939164161682129 -0.040668338537216187
v 0.05566927418112755 0.5939164161682129 -0.040668338537216187
v 0.05566927418112755 0.5939164161682129 -0.040668338537216187
v 0.12786483764648438 0.5939164161682129 -0.04066833481192589
v 0.12786483764648438 0.5939164161682129 -0.04066833481192589
v -0.05537876859307289 0.6317126154899597 -0.03078625723719597
v -0.05537876859307289 0.6317126154899597 -0.03078625723719597
v -0.11243211477994919 0.6317126154899597 -0.030786270275712013
v -0.11243211477994919 0.6317126154899597 -0.030786270275712013
v -0.11243211477994919 0.6317126154899597 -0.030786270275712013
v -0.12786497175693512 0.5939164161682129 -0.04066835343837738
v -0.12786497175693512 0.5939164161682129 -0.04066835343837738
v -0.05566961318254471 0.5939164161682129 -0.040668338537216187
v -0.05566961318254471 0.5939164161682129 -0.040668338537216187
v -0.05566961318254471 0.5939164161682129 -0.040668338537216187
v -0.05566961318254471 0.5939164161682129 -0.040668338537216187
v 0.06858500093221664 0.09067022055387497 -0.15483342111110687
v 0.06858500093221664 0.09067022055387497 -0.15483342111110687
v 0.15002740919589996 0.09067022800445557 -0.15483342111110687
v 0.15002740919589996 0.09067022800445557 -0.15483342111110687
v 0.15002739429473877 0.0021687233820557594 -0.17781060934066772
v 0.15002739429473877 0.0021687233820557594 -0.17781060934066772
v 0.15002739429473877 0.0021687233820557594 -0.17781060934066772
v 0.06858503818511963 0.0021687198895961046 -0.17781059443950653
v 0.06858503818511963 0.0021687198895961046 -0.17781059443950653
v -0.06858500093221664 0.09067022055387497 -0.15483345091342926
v -0.06858500093221664 0.09067022055387497 -0.15483345091342926
v -0.06858498603105545 0.0021686318796128035 -0.17781059443950653
v -0.06858498603105545 0.0021686318796128035 -0.17781059443950653
v -0.1500273495912552 0.002168710343539715 -0.17781060934066772
v -0.1500273495912552 0.002168710343539715 -0.17781060934066772
v -0.1500273495912552 0.002168710343539715 -0.17781060934066772
v -0.150027334690094 0.09067021310329437 -0.15483343601226807
v -0.150027334690094 0.09067021310329437 -0.15483343601226807
v 0.050104640424251556 0.5355425477027893 -0.03933380916714668
v 0.050104640424251556 0.5355425477027893 -0.03933380916714668
v 0.05557015538215637 0.5889372825622559 -0.025471242144703865
v 0.05557015538215637 0.5889372825622559 -0.025471242144703865
v 0.05557015538215637 0.5889372825622559 -0.025471242144703865
v 0.05557015538215637 0.5889372825622559 -0.025471242144703865
v 0.1282595843076706 0.5889372825622559 -0.025471240282058716
v 0.1282595843076706 0.5889372825622559 -0.025471240282058716
v 0.1282595843076706 0.5889372825622559 -0.025471240282058716
v 0.150027334690094 0.5355425477027893 -0.03933379799127579
v 0.150027334690094 0.5355425477027893 -0.03933379799127579
v -0.15002742409706116 0.5355425477027893 -0.039333831518888474
v -0.15002742409706116 0.5355425477027893 -0.039333831518888474
v -0.12825971841812134 0.5889372825622559 -0.025471258908510208
v -0.12825971841812134 0.5889372825622559 -0.025471258908510208
v -0.05557049438357353 0.5889372825622559 -0.02547125145792961
v -0.05557049438357353 0.5889372825622559 -0.02547125145792961
v -0.05557049438357353 0.5889372825622559 -0.02547125145792961
v -0.050105005502700806 0.5355425477027893 -0.039333805441856384
v -0.050105005502700806 0.5355425477027893 -0.039333805441856384
v -0.05010500177741051 0.5395533442497253 -0.05478229373693466
v -0.05010500177741051 0.5395533442497253 -0.05478229373693466
v 0.05010463669896126 0.5395533442497253 -0.05478229373693466
v 0.05010463669896126 0.5395533442497253 -0.05478229373693466
v 0.150027334690094 0.5395533442497253 -0.054782282561063766
v 0.150027334690094 0.5395533442497253 -0.054782282561063766
v -0.15002740919589996 0.5395533442497253 -0.054782312363386154
v -0.15002740919589996 0.5395533442497253 -0.054782312363386154
v 0.11251118034124374 0.6276102662086487 -0.014004343189299107
v 0.11251118034124374 0.6276102662086487 -0.014004343189299107
v -0.1264352947473526 0.5914860963821411 -0.014004377648234367
v -0.1264352947473526 0.5914860963821411 -0.014004377648234367
v -0.1264352947473526 0.5914860963821411 -0.014004377648234367
v 0.05230576545000076 0.5914860963821411 -0.014004356227815151
v 0.05230576545000076 0.5914860963821411 -0.014004356227815151
v 0.05230576545000076 0.5914860963821411 -0.014004356227815151
v 0.05230576545000076 0.5914860963821411 -0.014004356227815151
v 0.05230576545000076 0.5914860963821411 -0.014004356227815151
v 0.05105704814195633 0.5948846936225891 -0.04041694477200508
v 0.05105704814195633 0.5948846936225891 -0.04041694477200508
v -0.04796551540493965 0.5948846936225891 -0.04041694849729538
v -0.04796551540493965 0.5948846936225891 -0.04041694849729538
v 0.027256537228822708 0.6317126154899597 -0.03078625164926052
v 0.027256537228822708 0.6317126154899597 -0.03078625164926052
v 0.020422328263521194 0.6000370383262634 -0.03838038817048073
v 0.020422328263521194 0.6000370383262634 -0.03838038817048073
v 0.030633896589279175 0.5971574187278748 -0.04041694104671478
v 0.030633896589279175 0.5971574187278748 -0.04041694104671478
v -0.028779637068510056 0.5971574187278748 -0.04041694477200508
v -0.028779637068510056 0.5971574187278748 -0.04041694477200508
v -0.019186697900295258 0.6000370383262634 -0.03838039189577103
v -0.019186697900295258 0.6000370383262634 -0.03838039189577103
v -0.0256069153547287 0.6317126154899597 -0.03078625351190567
v -0.0256069153547287 0.6317126154899597 -0.03078625351190567
v -8.310217367579753e-7 0.6317126154899597 -0.03078625164926052
v -8.310217367579753e-7 0.6317126154899597 -0.03078625164926052
v -8.325316116497561e-7 0.6000370383262634 -0.03838038817048073
v -8.325316116497561e-7 0.6000370383262634 -0.03838038817048073
v 0.010210751555860043 0.5971574187278748 -0.04041694849729538
v 0.010210751555860043 0.5971574187278748 -0.04041694849729538
v 0.04084547609090805 0.6000370383262634 -0.03838038817048073
v 0.04084547609090805 0.6000370383262634 -0.03838038817048073
v -0.009593768045306206 0.5971574187278748 -0.04041694477200508
v -0.009593768045306206 0.5971574187278748 -0.04041694477200508
v -0.038372576236724854 0.6000370383262634 -0.038380395621061325
v -0.038372576236724854 0.6000370383262634 -0.038380395621061325
v -0.026934446766972542 0.5915130376815796 -0.014004365541040897
vt 0.8857864141464233 0.4946001172065735
vt 0.25284144282341003 0.7992170453071594
vt 0.4730777144432068 0.08960592746734619
vt 0.8791983127593994 0.08953464031219482
vt 0.0005000000237487257 0.7992157936096191
vt 0.7986798882484436 0.19425684213638306
vt 0.43821629881858826 0.3745737075805664
vt 0.252848356962204 0.3357914686203003
vt 0.0005026349681429565 0.33578890562057495
vt 0.3488977551460266 0.30572509765625
vt 0.18435122072696686 0.7992170453071594
vt 0.5415666103363037 0.08963155746459961
vt 0.8107094168663025 0.08958464860916138
vt 0.06899061799049377 0.7992156744003296
vt 0.7997083067893982 0.1233934760093689
vt 0.08453487604856491 0.33579015731811523
vt 0.16881439089775085 0.3357917070388794
vt 0.7136749029159546 0.1233702301979065
vt 0.8115265965461731 0.47465842962265015
vt 0.2528427243232727 0.7223215699195862
vt 0.18435165286064148 0.7223210334777832
vt 0.6184607148170471 0.08964776992797852
vt 0.7338153123855591 0.08962815999984741
vt 0.06899237632751465 0.722320020198822
vt 0.0005008889129385352 0.7223201394081116
vt 0.7240510582923889 0.21276795864105225
vt 0.35493332147598267 0.3530920743942261
vt 0.2212429642677307 0.2556992769241333
vt 0.4742177426815033 0.1233702301979065
vt 0.6632881760597229 0.12633240222930908
vt 0.03212359547615051 0.25569427013397217
vt 0.2652650773525238 0.32596224546432495
vt 0.07871951162815094 0.2556919455528259
vt 0.6167033910751343 0.1256093978881836
vt 0.5221899747848511 0.12412834167480469
vt 0.17326737940311432 0.25569552183151245
vt 0.38913726806640625 0.36172086000442505
vt 0.23421789705753326 0.2885549068450928
vt 0.8465464115142822 0.13538479804992676
vt 0.8909654021263123 0.9958946108818054
vt 0.8909654021263123 0.9958946108818054
vt 0.07985612004995346 0.28854966163635254
vt 0.8892672657966614 0.4816374182701111
vt 0.47308290004730225 0.0761839747428894
vt 0.784820556640625 0.999500036239624
vt 0.8791887760162354 0.07611244916915894
vt 0.784820556640625 0.7471728324890137
vt 0.801911473274231 0.20728349685668945
vt 0.4416542947292328 0.3615996241569519
vt 0.32141268253326416 0.9994991421699524
vt 0.32141268253326416 0.7471736669540405
vt 0.35210373997688293 0.31875818967819214
vt 0.784820556640625 0.9310107231140137
vt 0.5415709018707275 0.07620978355407715
vt 0.8107007741928101 0.07616287469863892
vt 0.784820556640625 0.8156617283821106
vt 0.7980263233184814 0.13661491870880127
vt 0.32141268253326416 0.83120197057724
vt 0.32141268253326416 0.9154707789421082
vt 0.7153534889221191 0.13659203052520752
vt 0.8150049448013306 0.46169519424438477
vt 0.707928478717804 0.9994991421699524
vt 0.707928478717804 0.9310111403465271
vt 0.6184607148170471 0.07622575759887695
vt 0.7338110208511353 0.07620590925216675
vt 0.707928478717804 0.8156612515449524
vt 0.707928478717804 0.7471728324890137
vt 0.7272806763648987 0.22579550743103027
vt 0.019142597913742065 0.28855061531066895
vt 0.29959553480148315 0.31776249408721924
vt 0.17350906133651733 0.28855401277542114
vt 0.7901994585990906 0.9948796629905701
vt 0.7901994585990906 0.9948796629905701
vt 0.6668345928192139 0.13536107540130615
vt 0.8423671126365662 0.14818096160888672
vt 0.8916115164756775 0.9825894236564636
vt 0.2750222682952881 0.826607346534729
vt 0.275022029876709 0.765480101108551
vt 0.3036322295665741 0.3305938243865967
vt 0.39336898922920227 0.34895384311676025
vt 0.275022029876709 0.981193482875824
vt 0.275022029876709 0.981193482875824
vt 0.2750222682952881 0.9200654625892639
vt 0.2750222682952881 0.9200654625892639
vt 0.7897047996520996 0.9815568327903748
vt 0.6710149645805359 0.14815765619277954
vt 0.5687514543533325 0.12486141920089722
vt 0.12667416036128998 0.2557143568992615
vt 0.12667416036128998 0.28168606758117676
vt 0.8405653238296509 0.995333731174469
vt 0.887290358543396 0.9951204061508179
vt 0.0837179496884346 0.2877071499824524
vt 0.16706077754497528 0.2877112030982971
vt 0.7964503169059753 0.994350254535675
vt 0.1037418320775032 0.25570857524871826
vt 0.5916702747344971 0.125219464302063
vt 0.8776499629020691 0.9960276484489441
vt 0.09232916682958603 0.281699001789093
vt 0.10090713948011398 0.28770309686660767
vt 0.8680784106254578 0.9967145919799805
vt 0.10951925069093704 0.28169310092926025
vt 0.8585121631622314 0.9964379668235779
vt 0.11814983934164047 0.28768038749694824
vt 0.8490813374519348 0.9957288503646851
vt 0.15897955000400543 0.28170180320739746
vt 0.8055410385131836 0.9953429698944092
vt 0.8145764470100403 0.9961544275283813
vt 0.1509293168783188 0.2877051830291748
vt 0.823625385761261 0.9960395693778992
vt 0.1428373008966446 0.2816948890686035
vt 0.8325526118278503 0.9955300092697144
vt 0.13472463190555573 0.287681519985199
vt 0.5472221970558167 0.12452298402786255
vt 0.1482657641172409 0.25571030378341675
vt 0.26514390110969543 0.9172579646110535
vt 0.2651447653770447 0.5742202997207642
vt 0.7951846122741699 0.9730543494224548
vt 0.7951846122741699 0.9730543494224548
vt 0.7951846122741699 0.9730543494224548
vt 0.5249139070510864 0.13870114088058472
vt 0.840812623500824 0.9735841155052185
vt 0.5743871331214905 0.13937759399414062
vt 0.35859933495521545 0.3390401601791382
vt 0.4730776846408844 0.1378820538520813
vt 0.6134994626045227 0.14008939266204834
vt 0.8659855127334595 0.9738207459449768
vt 0.2651435136795044 0.7246133685112
vt 0.2651435136795044 0.7668666839599609
vt 0.30108991265296936 0.3402603268623352
vt 0.4730776846408844 0.1131632924079895
vt 0.5487545132637024 0.0005077719688415527
vt 0.7973813414573669 0.49062687158584595
vt 0.4718584418296814 0.0005060434341430664
vt 0.7229179739952087 0.47146034240722656
vt 0.6184605956077576 0.11325979232788086
vt 0.4718579947948456 0.06899750232696533
vt 0.5415665507316589 0.11321496963500977
vt 0.5487543940544128 0.06899881362915039
vt 0.8875348567962646 0.1895310878753662
vt 0.8791980147361755 0.11325204372406006
vt 0.5487533807754517 0.2528499364852905
vt 0.5487533807754517 0.18435931205749512
vt 0.8107092380523682 0.1132727861404419
vt 0.4718570411205292 0.18435633182525635
vt 0.7338151335716248 0.11328434944152832
vt 0.8130543828010559 0.20862972736358643
vt 0.4718571603298187 0.25284814834594727
vt 0.6628370881080627 0.15538501739501953
vt 0.005233578849583864 0.03210413455963135
vt 0.2651435434818268 0.3542497754096985
vt 0.005229896400123835 0.07869404554367065
vt 0.6162522435188293 0.15466219186782837
vt 0.5534158945083618 0.011672019958496094
vt 0.8914346694946289 0.9522894620895386
vt 0.8914346694946289 0.9522894620895386
vt 0.038088470697402954 0.07983922958374023
vt 0.038089361041784286 0.01912999153137207
vt 0.2994018793106079 0.3627437949180603
vt 0.5217315554618835 0.15318089723587036
vt 0.005225769244134426 0.17322582006454468
vt 0.35510149598121643 0.32494544982910156
vt 0.005228626541793346 0.2212117314338684
vt 0.4737585484981537 0.15242278575897217
vt 0.38940539956092834 0.31672680377960205
vt 0.03808523342013359 0.23419487476348877
vt 0.03808415308594704 0.17348003387451172
vt 0.7906752824783325 0.951126217842102
vt 0.7906752824783325 0.951126217842102
vt 0.7331007719039917 0.014792859554290771
vt 0.6184661388397217 0.09983760118484497
vt 0.7079281806945801 0.6758174896240234
vt 0.7079280018806458 0.7443055510520935
vt 0.7262619137763977 0.458462119102478
vt 0.47308796644210815 0.09974133968353271
vt 0.7848206758499146 0.7443055510520935
vt 0.8007270097732544 0.47762858867645264
vt 0.54157555103302 0.09979325532913208
vt 0.7848206758499146 0.6758165955543518
vt 0.7079281806945801 0.560468852519989
vt 0.7338154911994934 0.09986221790313721
vt 0.7848209142684937 0.5604706406593323
vt 0.8107057213783264 0.09985095262527466
vt 0.8908686637878418 0.20253229141235352
vt 0.8791937232017517 0.09982991218566895
vt 0.7848206758499146 0.49198079109191895
vt 0.8163852691650391 0.22163176536560059
vt 0.7079281806945801 0.49198079109191895
vt 0.6019072532653809 0.013749003410339355
vt 0.3214094638824463 0.6602763533592224
vt 0.5573713183403015 0.02453911304473877
vt 0.8917940855026245 0.9656054377555847
vt 0.27502065896987915 0.6648701429367065
vt 0.27502065896987915 0.6648701429367065
vt 0.275020033121109 0.7259981632232666
vt 0.275020033121109 0.7259981632232666
vt 0.3035489022731781 0.34994828701019287
vt 0.32141008973121643 0.7443054914474487
vt 0.35191696882247925 0.36220288276672363
vt 0.44191792607307434 0.3174687623977661
vt 0.32141008973121643 0.4919816851615906
vt 0.39348524808883667 0.3295430541038513
vt 0.275020033121109 0.5102882981300354
vt 0.27502065896987915 0.5714161992073059
vt 0.7898905277252197 0.9644349813461304
vt 0.7286978363990784 0.02751457691192627
vt 0.3214094638824463 0.5760109424591064
vt 0.6845672130584717 0.015176534652709961
vt 0.08532481640577316 0.16881126165390015
vt 0.6864773035049438 0.0019864439964294434
vt 0.6004562377929688 0.000500023365020752
vt 0.08532662689685822 0.08453518152236938
vt 0.08532634377479553 0.000500023365020752
vt 0.34859737753868103 0.37520790100097656
vt 0.438630610704422 0.3044554591178894
vt 0.08532373607158661 0.2528425455093384
vt 0.6631292104721069 0.1408597230911255
vt 0.2684536874294281 0.3401200771331787
vt 0.39090266823768616 0.3392336368560791
vt 0.2651435136795044 0.9796580076217651
vt 0.2651435136795044 0.5118212103843689
vt 0.8862603902816772 0.9740390777587891
vt 0.8862603902816772 0.9740390777587891
vt 0.8862603902816772 0.9740390777587891
vt 0.2651445269584656 0.6621281504631042
vt 0.26514390110969543 0.8293535709381104
vt 0.8877438902854919 0.9529848098754883
vt 0.037244848906993866 0.08368897438049316
vt 0.03724205121397972 0.1670149564743042
vt 0.7969121932983398 0.9517912864685059
vt 0.005244499538093805 0.10369431972503662
vt 0.591217041015625 0.15427249670028687
vt 0.031228942796587944 0.1094709038734436
vt 0.8590021133422852 0.9510474801063538
vt 0.03723926097154617 0.10086226463317871
vt 0.8685716390609741 0.9509773254394531
vt 0.8150729537010193 0.9503812789916992
vt 0.03723754733800888 0.1508641242980957
vt 0.8241170048713684 0.9506924152374268
vt 0.031227419152855873 0.1427708864212036
vt 0.5467655062675476 0.15357553958892822
vt 0.0052425311878323555 0.14820313453674316
vt 0.568296492099762 0.153914213180542
vt 0.005248372443020344 0.12667495012283325
vt 0.031220117583870888 0.12667495012283325
vt 0.841036319732666 0.9517641067504883
vt 0.03721557557582855 0.11809539794921875
vt 0.849558413028717 0.9515528082847595
vt 0.8781261444091797 0.9518704414367676
vt 0.03123561106622219 0.09229028224945068
vt 0.8330300450325012 0.9513945579528809
vt 0.0372144989669323 0.13465988636016846
vt 0.031233705580234528 0.1589212417602539
vt 0.8060221672058105 0.9509963393211365
vt 0.8170214295387268 0.9732916355133057
vn -0.9999999999993756 -3.843635809628141e-8 -0.0000011167924185422028
vn -2.9702817786980057e-7 0.2512927932846549 0.9679111178424947
vn -1.7352059083640462e-7 -0.9679115866435685 0.25129098758431373
vn -2.910670109179139e-7 -0.9679115428720837 0.25129115618122766
vn -1.3160019398223955e-7 0.2512930166475487 0.9679110598521734
vn 1 0 0
vn -0.982395309104726 0.1808194699819918 -0.046944391831841174
vn -1.5228756285252624e-7 0.25129269502599255 0.9679111433528134
vn -1.3401047177694423e-7 0.25129269502599316 0.9679111433528158
vn 0.98239519476833 0.18081987714057476 -0.046945216230864284
vn -2.9702817786980057e-7 0.2512927932846549 0.9679111178424947
vn 0.7071065812361128 -0.6844171179053737 0.17768931169509966
vn -0.707106764322091 -0.6844168240170768 0.1776897151000045
vn -1.3160019398223955e-7 0.2512930166475487 0.9679110598521734
vn -0.6713446929027376 0.7173626970067168 -0.18624463550550455
vn -1.5091044031856112e-7 0.25129270952357097 0.9679111395888983
vn -1.4873824008659902e-7 0.251292709523571 0.9679111395888985
vn 0.6713446884183083 0.7173627518195418 -0.18624444054633998
vn -0.9999999999999962 5.1017383583234766e-8 -7.041260794454537e-8
vn -2.8258314466699763e-7 0.2512928077822401 0.9679111140785802
vn -2.4628387344424885e-7 0.2512928077822425 0.9679111140785894
vn 0.7071064213557612 -0.6844167209114828 0.17769147704440494
vn -0.7071069509086978 -0.6844161201099082 0.17769168385240822
vn -1.3003051807815084e-7 0.2512928915433387 0.9679110923322303
vn -1.1048970327948306e-7 0.25129291946370164 0.9679110850834376
vn 0.9999999999999887 3.138018743155187e-8 -1.4679171465117178e-7
vn -0.934642356800164 0.35046036622056875 -0.06017637895038195
vn 0 0.25295370534908806 0.9674783837120944
vn 9.083063862587553e-7 0.9713975757935945 -0.23745894327546996
vn -3.958170695899913e-7 0.9713975825920378 -0.2374589154657889
vn -1.8683054709536938e-7 0.2529538461044664 0.967478346910629
vn 0.9293107566645633 0.3606722721312899 -0.07935382576277973
vn -0.008203244965947919 0.24799046683304501 0.9687277404575328
vn 3.0730065649806194e-7 0.9713976959434799 -0.2374584517670491
vn -1.8556264721997906e-8 0.9713976718831193 -0.23745855019361886
vn 0.00808079722900369 0.24836175017900602 0.9686336468263762
vn -0.9334451136616821 0.35035435770641843 -0.07701976251100866
vn 0 0.2519243555887892 0.9677469292439905
vn -0.9951278454450356 0.0954291792355795 -0.024775854583548338
vn -0.8819743754718842 -0.44613926442893226 0.15192418420314382
vn -0.03615315837145633 -0.9913894673814321 0.1258565576556451
vn 0.00011014485214451125 0.25234665148269037 0.9676368923070189
vn -0.9999999999993756 -3.843635809628141e-8 -0.0000011167924185422028
vn -1.7352059083640462e-7 -0.9679115866435685 0.25129098758431373
vn 3.457364956352787e-8 -0.251292919463703 -0.9679110850834429
vn -2.910670109179139e-7 -0.9679115428720837 0.25129115618122766
vn 1.9455081558807205e-7 -0.2512931149062171 -0.9679110343418412
vn 1 0 0
vn -0.9823953318268296 0.18081935495492288 -0.04694435939001745
vn 1.5279449782286203e-7 -0.2512927932846631 -0.967911117842526
vn 8.451522517311368e-8 -0.2512928357026134 -0.9679111068298226
vn 0.9823951975871268 0.18081986275824244 -0.046945212640274514
vn 3.457364956352787e-8 -0.251292919463703 -0.9679110850834429
vn 0.7071069434437776 -0.6844167666229295 0.17768922336206175
vn -0.7071070054884987 -0.6844165901707733 0.17768965610890308
vn 1.9455081558807205e-7 -0.2512931149062171 -0.9679110343418412
vn -0.6713444720975767 0.7173628946414076 -0.18624467019414828
vn 1.8163684327035414e-7 -0.2512928357026102 -0.9679111068298102
vn 2.1639010440596767e-7 -0.2512927932846601 -0.9679111178425147
vn 0.6713447189869218 0.7173627248788681 -0.18624443412552297
vn -0.9999999999999962 5.1017281066378736e-8 -7.041371929972202e-8
vn 1.0666620328093767e-7 -0.2512928636229764 -0.967911099581027
vn 1.8353743011001614e-7 -0.25129286362297365 -0.9679110995810162
vn 0.7071071774052468 -0.6844159874484733 0.1776912935034132
vn -0.7071065887010692 -0.6844164713922848 0.1776917721856333
vn 1.7575246518802918e-7 -0.2512929194636993 -0.9679110850834286
vn 9.72754036026376e-8 -0.2512930032247852 -0.96791106333705
vn 0.9999999999999889 3.138015713943752e-8 -1.4679157800401135e-7
vn -1.9045500953278028e-7 0.2519244114105712 0.9677469147124164
vn 0.9317044372498314 0.35314222248304944 -0.08495535479713823
vn -0.00006742437296790981 0.25236208209625105 0.9676328719994991
vn 0.030847648674552107 -0.9919696020079686 0.12265696581688283
vn 0.8774401295700535 -0.45412071350977457 0.15450953556807093
vn 0.9951278751307112 0.09542896029961662 -0.024775505524001682
vn -0.9951278454450356 0.0954291792355795 -0.024775854583548338
vn -0.8819743754718842 -0.44613926442893226 0.15192418420314382
vn 4.404903459219485e-7 -0.7399906031017973 -0.6726172071251556
vn 3.983376212883542e-7 -0.6518334189563001 -0.7583621786004243
vn 0.944717978945424 0.31805787678111885 -0.07966886013217434
vn -0.939295058112975 0.33252973398475155 -0.08455039811008343
vn -0.00000852886542513461 -0.6495080983130579 -0.7603546739206735
vn 0.0000416859985360358 -0.6495325580334909 -0.7603337782295005
vn -0.000013681314542423002 -0.7406291081368188 -0.671914074858744
vn 0.000004447996605551477 -0.7406396847841492 -0.6719024165033576
vn 0.8774401295700535 -0.45412071350977457 0.15450953556807093
vn 0.9951278751307112 0.09542896029961662 -0.024775505524001682
vn 0.000002148274362921435 0.9713983686366483 -0.237455699879879
vn 0.001048899587753785 0.2595364706909233 0.9657327374542888
vn 0.0012107503603759015 0.2595364551943601 0.9657325522672986
vn 0.0029139836596264 -0.9707727655340437 0.23998280437692995
vn -0.1607106604067232 -0.9587325918761429 0.23452910460343276
vn -0.007651859261432813 0.2482005303475576 0.9686784532470176
vn 0.008216967882427437 0.2482249163760793 0.9686675757600786
vn 0.16811903857692947 -0.9574223498533421 0.23468794785688038
vn -0.008785823707299946 0.25051976240294554 0.9680716181912142
vn 6.646343425592918e-7 0.9713979603019313 -0.23745737032319275
vn -0.18809835510932454 -0.8942672674257428 0.4060850443146872
vn 0.031017996813471137 0.2556703876733875 0.9662662866625428
vn 0.005112309946567697 0.26893258128498804 0.9631454360637357
vn 0.011901323371397507 -0.9780236991432005 0.20815379510414836
vn 0.02257174432529453 0.22847291359067493 0.9732885718601146
vn 0.06807898264506197 -0.9342887189142823 0.349956914250201
vn 0.022375763284431836 0.24193853504594012 0.9700335409032326
vn 0.03983065800981473 -0.9540596166835688 0.29695751631522477
vn -0.03440040959891948 0.25618945340047744 0.9660142730756058
vn 0.1909664148351323 -0.8952096217601792 0.40265563638550156
vn -0.012224557931363796 -0.9780205734730446 0.2081497490914646
vn -0.005016615292172981 0.26889628941307564 0.9631560720417486
vn -0.06760693369393178 -0.93490088371801 0.34841016078723697
vn -0.02297751146068021 0.22867262988583553 0.9732321728694392
vn -0.04631000355245266 -0.9533052979894929 0.2984365801910615
vn -0.025042792837858364 0.24155455881411336 0.9700640461552006
vn -3.744193310559931e-7 0.9713978812467602 -0.2374576937249353
vn 0.00980452551586864 0.25071761276103105 0.9680106145754902
vn -1.9066295189876845e-7 -0.9761759265043926 -0.2169805533066374
vn 0 -0.976175910723245 0.21698062430466777
vn 0.031083915162542112 -0.9995167783575061 1.76809101155049e-8
vn 0.8774401295700535 -0.45412071350977457 0.15450953556807093
vn 0.8774428718492611 -0.4541158559719195 -0.15450823924895482
vn -9.95238664813764e-8 0.9999999999999949 1.9531391615146177e-8
vn 0.002706946192444641 -0.9999963362144432 -3.923497740072491e-8
vn 5.391559946784046e-7 0.9999999999998546 -9.7656892842248e-9
vn -0.936339261798167 0.35109654913586086 -3.922009216420291e-7
vn 0.000001007995820145367 0.9999999999994915 3.0512090631857916e-8
vn -1.4543141446665535e-7 0.9999999999999896 9.765694919394616e-9
vn -0.05459265923111374 -0.9985087088043019 2.0350450411701934e-7
vn 1.9053003162205566e-7 -0.9761759545604642 0.21698042708486423
vn 5.393624627521996e-7 -0.9761759422854289 -0.21698048230857991
vn 0.9366964840893308 0.3501423948833979 -7.066221138444967e-8
vn -4.901034538819324e-7 -0.9679115573695022 -0.2512911003404311
vn 3.126613726748692e-8 0.25129357720438616 -0.9679109143179562
vn 0.9999999999999418 -1.9617591817676608e-7 2.791981330574182e-7
vn 1.56330693087631e-8 0.25129338068702856 -0.9679109653386947
vn 0.999999999999932 -1.9637386221874546e-8 -3.68221343825759e-7
vn -0.7071067785769567 -0.6844159456574619 -0.17769304156415566
vn 5.4782922089795766e-8 0.25129328350321944 -0.967910990569984
vn -0.7071068736273419 -0.684416518320247 -0.17769045759228935
vn 3.126613726748692e-8 0.25129357720438616 -0.9679109143179562
vn -0.9999999999991731 1.5773940731365344e-7 -0.000001276334273824286
vn -3.937493578527796e-7 -0.9679115356233015 -0.25129118410160634
vn 8.143314138662248e-8 0.25129329692596486 -0.9679109870851101
vn 8.143314138662248e-8 0.25129329692596486 -0.9679109870851101
vn 0.7071068520106993 -0.6844167935078409 -0.17768948366170811
vn 9.282576766330854e-8 0.2512931707469347 -0.9679110198442535
vn 0.70710634084746 -0.6844166429865399 -0.1776920975630334
vn -0.9999999999993421 5.122714696877933e-8 -0.0000011459869710953816
vn 7.189954970844666e-8 0.2512932131648965 -0.9679110088315231
vn 0 0.9713975757177006 0.23745894358767394
vn 2.0065945874367248e-8 0.2529542512269677 -0.9674782409885009
vn 0.9293108471421144 0.3606720821663614 0.07935362959428412
vn -0.008203259628296546 0.2479908453960294 -0.9687276434226668
vn -6.156804453622828e-7 0.9713976924298399 0.23745846614008814
vn -0.9951278150047663 0.09542945372264733 0.024776019979742405
vn -0.8819816560190349 -0.4461262747100051 -0.15192006272804762
vn -0.03615246051640604 -0.9913894933717142 -0.12585655338831372
vn 0.00011025100698139255 0.25234715496545745 -0.9676367609932741
vn -4.904347901540341e-8 0.25192480331528233 -0.9677468126914982
vn 0.9317045598795939 0.35314192575628883 0.08495524335032009
vn 3.124478184311236e-7 0.9713976650086686 0.23745857831547984
vn 0.008081444443965847 0.248361986931154 -0.9686335807225086
vn -0.9346424618286179 0.35046021934413957 0.060175603064683655
vn 3.1133479110823184e-7 0.25295395640767976 -0.9674783180710588
vn 0.0000010500230557194708 0.9713975689190453 0.2374589713973046
vn -0.9334453291434311 0.350353864829645 0.07701939300748978
vn 3.821562313054113e-7 0.2519246346976785 -0.967746856586109
vn -0.00006776055315471683 0.25236220826284805 -0.9676328390713114
vn 0.030850758240224485 -0.9919695085846222 -0.12265693928346143
vn 0.8774428718492611 -0.4541158559719195 -0.15450823924895482
vn 0.9951278570074931 0.09542901245045315 0.024776032580017097
vn -0.7071065383668214 -0.6844161823419803 -0.17769308581742962
vn -2.291563679141867e-8 -0.2512933248463206 0.9679109798363077
vn -1.7083778105116985e-8 -0.25129342310499825 0.9679109543259504
vn 0.999999999999932 -1.963770124291253e-8 -3.682201850096794e-7
vn -4.901034538819324e-7 -0.9679115573695022 -0.2512911003404311
vn 1.0943153687186171e-7 -0.25129377264683617 0.9679108635762429
vn 0.9999999999999418 -1.9617591817676608e-7 2.791981330574182e-7
vn -0.7071069043456185 -0.6844164884481585 -0.1776904504103918
vn 1.0943153687186171e-7 -0.25129377264683617 0.9679108635762429
vn -3.3892464154789745e-8 -0.2512931707469357 0.9679110198442572
vn 0.7071073696974337 -0.6844156447791023 -0.17769184815624603
vn -9.379844497675483e-8 -0.25129335276667386 0.9679109725874975
vn 0.7071065475353967 -0.6844170852860381 -0.17768957144733083
vn -0.9999999999991731 1.5773940731365344e-7 -0.000001276334273824286
vn -3.937493578527796e-7 -0.9679115356233015 -0.25129118410160634
vn -9.379844497675483e-8 -0.25129335276667386 0.9679109725874975
vn -0.9999999999993421 5.122734947345902e-8 -0.0000011459873121558948
vn -3.567307858652779e-8 -0.2512932410852538 0.9679110015827215
vn -0.6713443034226592 0.7173630246847205 0.18624477731505235
vn -1.010230227073712e-7 -0.25129310148346234 0.9679110378267273
vn -0.9951278150047663 0.09542945372264733 0.024776019979742405
vn -0.8819816560190349 -0.4461262747100051 -0.15192006272804762
vn -0.000004954022283115489 -0.739984697024718 0.6726237047151206
vn -0.000004660338025071862 -0.7399953980183884 0.6726119318670226
vn 0.000008774508026018393 -0.651838037345107 0.7583582088914754
vn 0.00003578513465846962 -0.6518258925279343 0.7583686468661438
vn 0.9447180561276057 0.318057654015612 0.0796688342362515
vn -1.3884709584720934e-7 -0.2512930869858615 0.96791104159065
vn 0.9823952635586177 0.1808196851161965 0.046944516315257666
vn -0.9823953544151321 0.1808191951997346 0.04694450203045368
vn -2.950610167395692e-8 -0.2512931014834635 0.9679110378267317
vn -0.9392960590809528 0.332527187727977 0.0845492922307108
vn -6.605511323729306e-8 -0.64952079555753 0.7603438275795426
vn -5.439896764561458e-8 -0.7406395150808518 0.6719026035823925
vn 0.8774428718492611 -0.4541158559719195 -0.15450823924895482
vn 0.9951278570074931 0.09542901245045315 0.024776032580017097
vn -3.483262507698832e-8 -0.25129310148346345 0.9679110378267315
vn 0.671344927508021 0.717362454513462 0.18624472385458585
vn 2.0417875920887665e-7 0.25129303114514095 -0.9679110560882366
vn 0.6713447990264411 0.7173625638148831 0.18624476598574563
vn -0.6713441730778272 0.7173631319951626 0.18624483383046928
vn 1.8510284419936604e-8 0.25129308698586383 -0.967911041590659
vn -3.951283324929442e-8 0.25129305906550514 -0.9679110488394576
vn 0.982395269196201 0.18081965635152844 0.046944509134073505
vn -0.9823953538483149 0.18081919902576676 0.04694449915511503
vn 2.193103240576123e-7 0.2512929887271864 -0.9679110671009552
vn -2.0373587972244002e-7 0.9999999999999793 -9.794307587185156e-9
vn 0.9322506315979301 0.3618131560422445 -1.0406457658504172e-7
vn -0.938440850096772 0.3454399670990649 -4.949499676992891e-7
vn -1.9066295189876845e-7 -0.9761759265043926 -0.2169805533066374
vn 0 -0.976175910723245 0.21698062430466777
vn -0.8819816560190349 -0.4461262747100051 -0.15192006272804762
vn -0.8819743754718842 -0.44613926442893226 0.15192418420314382
vn -0.03644258465343043 -0.9993357483967927 -4.429127209849844e-9
vn 1.9053003162205566e-7 -0.9761759545604642 0.21698042708486423
vn 5.393624627521996e-7 -0.9761759422854289 -0.21698048230857991
vn -0.16071289648988513 -0.9587323588802843 -0.23452852478467853
vn -0.007651976272364076 0.24820116041142326 -0.9686782908837951
vn 0.008216535869098486 0.24822487530840787 -0.9686675899483979
vn 0.16812132764110793 -0.9574219849368143 -0.2346877967680503
vn -0.008786073492170957 0.25052006910266383 -0.9680715365557375
vn -0.0000010959215249890373 0.9713979635861122 0.23745735688656436
vn 0.02257338268340486 0.22847305876541227 -0.9732884997844191
vn 0.06807456202741977 -0.9342888814253323 -0.3499573403284698
vn 0.00511301172076384 0.2689325526732293 -0.9631454403275781
vn 0.011898234303246878 -0.9780237524015106 -0.20815372146308975
vn -0.012218928546943656 -0.9780206550393163 -0.20814969637650543
vn -0.005016441835909203 0.2688966645006387 -0.9631559682272327
vn -0.06759899652880597 -0.9349013287907713 -0.34841050657744044
vn -0.0229747437212823 0.22867305226134044 -0.9732321389681002
vn 1.1193420681960891e-7 0.9713978846840119 0.23745767966400833
vn 0.009805241832670559 0.25071789028782593 -0.9680105354396845
vn 0.000002619452083757046 0.9713983618375739 0.23745572768921908
vn 0.0010484619422620387 0.25953687696170646 -0.9657326287459276
vn 0.0012103190275769427 0.25953684445786335 -0.9657324481949989
vn 0.0029136942431851097 -0.9707727628811813 -0.2399828186222817
vn 0.02237506587430495 0.24193888946969738 -0.9700334685923421
vn 0.03983296030602033 -0.9540595290528626 -0.2969574890395741
vn -0.18810298236995573 -0.8942666268588546 -0.40608431157829045
vn 0.031016884938707516 0.2556705079087111 -0.9662662905402428
vn -0.04630939665890334 -0.953305287674741 -0.2984367073140764
vn -0.025041959771838204 0.2415549566732239 -0.9700639685904133
vn -0.034400307701412225 0.25618983103999493 -0.9660141765531948
vn 0.19096886689319073 -0.89520929264061 -0.4026552051661935
vn 0.0565650175071041 -0.9983989176648885 -1.2252511222176713e-8
f 25/25/25 24/24/24 14/14/14
f 25/25/25 14/14/14 5/5/5
f 11/11/11 21/21/21 20/20/20
f 11/11/11 20/20/20 2/2/2
f 33/33/33 42/42/42 69/69/69
f 33/33/33 69/69/69 31/31/31
f 28/28/28 38/38/38 71/71/71
f 28/28/28 71/71/71 36/36/36
f 66/66/66 67/67/67 47/47/47
f 66/66/66 47/47/47 56/56/56
f 53/53/53 45/45/45 62/62/62
f 53/53/53 62/62/62 63/63/63
f 58/58/58 77/77/77 78/78/78
f 58/58/58 78/78/78 51/51/51
f 81/81/81 84/84/84 59/59/59
f 81/81/81 59/59/59 50/50/50
f 23/23/23 65/65/65 55/55/55
f 23/23/23 55/55/55 13/13/13
f 15/15/15 57/57/57 60/60/60
f 15/15/15 60/60/60 18/18/18
f 22/22/22 64/64/64 65/65/65
f 22/22/22 65/65/65 23/23/23
f 26/26/26 68/68/68 52/52/52
f 26/26/26 52/52/52 10/10/10
f 3/3/3 44/44/44 54/54/54
f 3/3/3 54/54/54 12/12/12
f 12/12/12 54/54/54 64/64/64
f 12/12/12 64/64/64 22/22/22
f 19/19/19 61/61/61 43/43/43
f 19/19/19 43/43/43 1/1/1
f 39/39/39 75/75/75 57/57/57
f 39/39/39 57/57/57 15/15/15
f 37/37/37 80/80/80 49/49/49
f 37/37/37 49/49/49 7/7/7
f 73/73/73 85/85/85 118/118/118
f 70/70/70 129/129/129 217/217/217
f 70/70/70 217/217/217 32/32/32
f 35/35/35 120/120/120 124/124/124
f 35/35/35 124/124/124 29/29/29
f 37/37/37 27/27/27 123/123/123
f 37/37/37 123/123/123 218/218/218
f 42/42/42 16/16/16 9/9/9
f 42/42/42 9/9/9 69/69/69
f 38/38/38 8/8/8 17/17/17
f 38/38/38 17/17/17 71/71/71
f 77/77/77 225/225/225 128/128/128
f 77/77/77 128/128/128 78/78/78
f 222/222/222 76/76/76 40/40/40
f 10/10/10 52/52/52 79/79/79
f 10/10/10 79/79/79 70/70/70
f 18/18/18 60/60/60 86/86/86
f 18/18/18 86/86/86 74/74/74
f 42/42/42 33/33/33 92/92/92
f 36/36/36 71/71/71 93/93/93
f 117/117/117 254/254/254 94/94/94
f 117/117/117 94/94/94 72/72/72
f 48/48/48 68/68/68 26/26/26
f 48/48/48 26/26/26 6/6/6
f 13/13/13 55/55/55 46/46/46
f 13/13/13 46/46/46 4/4/4
f 216/216/216 125/125/125 34/34/34
f 216/216/216 34/34/34 30/30/30
f 95/95/95 101/101/101 99/99/99
f 100/100/100 102/102/102 126/126/126
f 108/108/108 110/110/110 114/114/114
f 59/59/59 63/63/63 62/62/62
f 59/59/59 62/62/62 50/50/50
f 58/58/58 66/66/66 63/63/63
f 58/58/58 63/63/63 59/59/59
f 51/51/51 67/67/67 66/66/66
f 51/51/51 66/66/66 58/58/58
f 7/7/7 49/49/49 61/61/61
f 7/7/7 61/61/61 19/19/19
f 218/218/218 80/80/80 37/37/37
f 88/88/88 89/89/89 103/103/103
f 88/88/88 103/103/103 95/95/95
f 95/95/95 103/103/103 101/101/101
f 98/98/98 92/92/92 33/33/33
f 98/98/98 33/33/33 95/95/95
f 99/99/99 98/98/98 95/95/95
f 104/104/104 90/90/90 121/121/121
f 104/104/104 121/121/121 126/126/126
f 126/126/126 102/102/102 104/104/104
f 96/96/96 34/34/34 125/125/125
f 96/96/96 125/125/125 122/122/122
f 89/89/89 88/88/88 114/114/114
f 89/89/89 114/114/114 112/112/112
f 110/110/110 112/112/112 114/114/114
f 36/36/36 93/93/93 105/105/105
f 36/36/36 105/105/105 114/114/114
f 114/114/114 105/105/105 108/108/108
f 106/106/106 94/94/94 254/254/254
f 107/107/107 106/106/106 254/254/254
f 113/113/113 87/87/87 122/122/122
f 79/79/79 129/129/129 70/70/70
f 8/8/8 20/20/20 21/21/21
f 8/8/8 21/21/21 17/17/17
f 9/9/9 16/16/16 24/24/24
f 9/9/9 24/24/24 25/25/25
f 21/21/21 24/24/24 16/16/16
f 21/21/21 16/16/16 17/17/17
f 223/223/223 41/41/41 91/91/91
f 223/223/223 91/91/91 126/126/126
f 109/109/109 107/107/107 254/254/254
f 83/83/83 82/82/82 219/219/219
f 83/83/83 219/219/219 115/115/115
f 91/91/91 97/97/97 126/126/126
f 126/126/126 97/97/97 100/100/100
f 122/122/122 87/87/87 96/96/96
f 121/121/121 90/90/90 111/111/111
f 121/121/121 111/111/111 254/254/254
f 254/254/254 111/111/111 109/109/109
f 120/120/120 35/35/35 113/113/113
f 120/120/120 113/113/113 122/122/122
f 138/138/138 136/136/136 133/133/133
f 138/138/138 133/133/133 131/131/131
f 147/147/147 144/144/144 142/142/142
f 147/147/147 142/142/142 141/141/141
f 157/157/157 156/156/156 151/151/151
f 157/157/157 151/151/151 149/149/149
f 166/166/166 165/165/165 162/162/162
f 166/166/166 162/162/162 160/160/160
f 171/171/171 178/178/178 175/175/175
f 171/171/171 175/175/175 172/172/172
f 187/187/187 185/185/185 181/181/181
f 187/187/187 181/181/181 179/179/179
f 189/189/189 197/197/197 194/194/194
f 189/189/189 194/194/194 193/193/193
f 206/206/206 203/203/203 202/202/202
f 206/206/206 202/202/202 200/200/200
f 177/177/177 170/170/170 135/135/135
f 177/177/177 135/135/135 137/137/137
f 207/207/207 188/188/188 210/210/210
f 207/207/207 210/210/210 209/209/209
f 170/170/170 180/180/180 145/145/145
f 170/170/170 145/145/145 135/135/135
f 198/198/198 173/173/173 134/134/134
f 198/198/198 134/134/134 213/213/213
f 182/182/182 184/184/184 140/140/140
f 182/182/182 140/140/140 143/143/143
f 180/180/180 182/182/182 143/143/143
f 180/180/180 143/143/143 145/145/145
f 183/183/183 186/186/186 146/146/146
f 183/183/183 146/146/146 139/139/139
f 188/188/188 190/190/190 153/153/153
f 188/188/188 153/153/153 210/210/210
f 199/199/199 201/201/201 164/164/164
f 199/199/199 164/164/164 214/214/214
f 168/168/168 119/119/119 204/204/204
f 217/217/217 129/129/129 158/158/158
f 217/217/217 158/158/158 150/150/150
f 124/124/124 120/120/120 159/159/159
f 124/124/124 159/159/159 163/163/163
f 164/164/164 218/218/218 123/123/123
f 164/164/164 123/123/123 161/161/161
f 156/156/156 157/157/157 212/212/212
f 156/156/156 212/212/212 211/211/211
f 165/165/165 166/166/166 208/208/208
f 165/165/165 208/208/208 215/215/215
f 192/192/192 195/195/195 127/127/127
f 192/192/192 127/127/127 224/224/224
f 191/191/191 221/221/221 154/154/154
f 196/196/196 198/198/198 213/213/213
f 196/196/196 213/213/213 158/158/158
f 205/205/205 207/207/207 209/209/209
f 205/205/205 209/209/209 169/169/169
f 156/156/156 227/227/227 151/151/151
f 160/160/160 228/228/228 166/166/166
f 229/229/229 254/254/254 117/117/117
f 229/229/229 117/117/117 167/167/167
f 134/134/134 173/173/173 176/176/176
f 134/134/134 176/176/176 132/132/132
f 137/137/137 130/130/130 174/174/174
f 137/137/137 174/174/174 177/177/177
f 152/152/152 125/125/125 216/216/216
f 152/152/152 216/216/216 148/148/148
f 230/230/230 234/234/234 232/232/232
f 235/235/235 126/126/126 233/233/233
f 237/237/237 241/241/241 239/239/239
f 187/187/187 179/179/179 206/206/206
f 187/187/187 206/206/206 200/200/200
f 179/179/179 171/171/171 189/189/189
f 179/179/179 189/189/189 206/206/206
f 171/171/171 172/172/172 197/197/197
f 171/171/171 197/197/197 189/189/189
f 214/214/214 146/146/146 186/186/186
f 214/214/214 186/186/186 199/199/199
f 201/201/201 218/218/218 164/164/164
f 246/246/246 244/244/244 243/243/243
f 246/246/246 243/243/243 230/230/230
f 230/230/230 232/232/232 246/246/246
f 249/249/249 230/230/230 151/151/151
f 249/249/249 151/151/151 227/227/227
f 234/234/234 230/230/230 249/249/249
f 247/247/247 126/126/126 121/121/121
f 247/247/247 121/121/121 245/245/245
f 126/126/126 247/247/247 233/233/233
f 231/231/231 122/122/122 125/125/125
f 231/231/231 125/125/125 152/152/152
f 241/241/241 243/243/243 244/244/244
f 241/241/241 244/244/244 251/251/251
f 239/239/239 241/241/241 251/251/251
f 252/252/252 228/228/228 160/160/160
f 252/252/252 160/160/160 241/241/241
f 241/241/241 237/237/237 252/252/252
f 253/253/253 254/254/254 229/229/229
f 236/236/236 254/254/254 253/253/253
f 242/242/242 240/240/240 122/122/122
f 129/129/129 196/196/196 158/158/158
f 144/144/144 147/147/147 215/215/215
f 144/144/144 215/215/215 208/208/208
f 212/212/212 133/133/133 136/136/136
f 212/212/212 136/136/136 211/211/211
f 211/211/211 136/136/136 144/144/144
f 211/211/211 144/144/144 208/208/208
f 223/223/223 126/126/126 226/226/226
f 223/223/223 226/226/226 155/155/155
f 254/254/254 236/236/236 238/238/238
f 220/220/220 202/202/202 203/203/203
f 220/220/220 203/203/203 116/116/116
f 248/248/248 226/226/226 126/126/126
f 126/126/126 235/235/235 248/248/248
f 122/122/122 231/231/231 242/242/242
f 121/121/121 254/254/254 250/250/250
f 121/121/121 250/250/250 245/245/245
f 238/238/238 250/250/250 254/254/254
f 120/120/120 122/122/122 240/240/240
f 120/120/120 240/240/240 159/159/159
