mtllib wooden_table_02_2k.mtl
o wooden_table_02
usemtl wooden_table_02
v 0.5672084093093872 0.7368717193603516 0.3471056818962097
v 0.5613017082214355 0.7368717193603516 0.353012353181839
v 0.5613017082214355 0.7368717193603516 0.353012353181839
v 0.5672084093093872 0.7935109734535217 0.3471056818962097
v 0.5297253131866455 0.7994175553321838 0.3155292272567749
v 0.5297253131866455 0.7994175553321838 0.3155292272567749
v 0.5297253131866455 0.7994175553321838 0.3155292272567749
v 0.5613017082214355 0.7935109734535217 0.353012353181839
v 0.5613017082214355 0.7935109734535217 0.353012353181839
v -0.561301589012146 0.7368717193603516 0.35301241278648376
v -0.5672082304954529 0.7368717193603516 0.3471057415008545
v -0.5672082304954529 0.7368717193603516 0.3471057415008545
v -0.5297251343727112 0.7994176745414734 0.3155292868614197
v -0.5297251343727112 0.7994176745414734 0.3155292868614197
v -0.5297251343727112 0.7994176745414734 0.3155292868614197
v -0.5672082304954529 0.7935109734535217 0.3471057415008545
v -0.5672082304954529 0.7935109734535217 0.3471057415008545
v -0.561301589012146 0.7935109734535217 0.35301241278648376
v 0.5613017082214355 0.7368717193603516 -0.35301241278648376
v 0.5672084093093872 0.7368717193603516 -0.3471057415008545
v 0.5672084093093872 0.7368717193603516 -0.3471057415008545
v 0.5297253131866455 0.7994175553321838 -0.3155292868614197
v 0.5297253131866455 0.7994175553321838 -0.3155292868614197
v 0.5297253131866455 0.7994175553321838 -0.3155292868614197
v 0.5672084093093872 0.7935109734535217 -0.3471057415008545
v 0.5672084093093872 0.7935109734535217 -0.3471057415008545
v 0.5613017082214355 0.7935109734535217 -0.35301241278648376
v -0.5672082304954529 0.7368717193603516 -0.3471056818962097
v -0.561301589012146 0.7368717193603516 -0.353012353181839
v -0.561301589012146 0.7368717193603516 -0.353012353181839
v -0.5297251343727112 0.7994176745414734 -0.3155292272567749
v -0.5297251343727112 0.7994176745414734 -0.3155292272567749
v -0.5297251343727112 0.7994176745414734 -0.3155292272567749
v -0.561301589012146 0.7935109734535217 -0.353012353181839
v -0.561301589012146 0.7935109734535217 -0.353012353181839
v -0.5672082304954529 0.7935109734535217 -0.3471056818962097
v -0.561301589012146 0.7316011190414429 0.3471057415008545
v -0.561301589012146 0.7316011190414429 0.3471057415008545
v 0.5613017082214355 0.7316009402275085 0.3471056818962097
v 0.5613017082214355 0.7316009402275085 0.3471056818962097
v -0.561301589012146 0.7316011190414429 -0.3471056818962097
v -0.561301589012146 0.7316011190414429 -0.3471056818962097
v 0.5613017082214355 0.7316009402275085 -0.3471057415008545
v 0.5613017082214355 0.7316009402275085 -0.3471057415008545
v -0.5291101336479187 0.7733471989631653 0.3147798478603363
v -0.5291101336479187 0.7733471989631653 0.3147798478603363
v -0.5291101336479187 0.7733471989631653 0.3147798478603363
v 0.5291102528572083 0.7733470797538757 0.31477978825569153
v 0.5291102528572083 0.7733470797538757 0.31477978825569153
v 0.5291102528572083 0.7733470797538757 0.31477978825569153
v -0.5291101336479187 0.7733471989631653 -0.31477978825569153
v -0.5291101336479187 0.7733471989631653 -0.31477978825569153
v -0.5291101336479187 0.7733471989631653 -0.31477978825569153
v 0.5291102528572083 0.7733470797538757 -0.3147798478603363
v 0.5291102528572083 0.7733470797538757 -0.3147798478603363
v 0.5291102528572083 0.7733470797538757 -0.3147798478603363
v 0.5291102528572083 0.7337385416030884 0.31477978825569153
v 0.5291102528572083 0.7337385416030884 0.31477978825569153
v 0.5312433242797852 0.7316009402275085 0.3169216811656952
v 0.5312433242797852 0.7316009402275085 0.3169216811656952
v -0.5312431454658508 0.7316010594367981 0.31692174077033997
v -0.5312431454658508 0.7316010594367981 0.31692174077033997
v -0.5291101336479187 0.7337386608123779 0.3147798478603363
v -0.5291101336479187 0.7337386608123779 0.3147798478603363
v 0.5312433242797852 0.7316009402275085 -0.31692177057266235
v 0.5312433242797852 0.7316009402275085 -0.31692177057266235
v 0.5291102528572083 0.7337385416030884 -0.3147798478603363
v 0.5291102528572083 0.7337385416030884 -0.3147798478603363
v -0.5312431454658508 0.7316010594367981 -0.3169217109680176
v -0.5312431454658508 0.7316010594367981 -0.3169217109680176
v -0.5291101336479187 0.7337386608123779 -0.31477978825569153
v -0.5291101336479187 0.7337386608123779 -0.31477978825569153
v 0.5613017082214355 0.7994176745414734 0.3471056818962097
v 0.5613017082214355 0.7994176745414734 0.3471056818962097
v -0.561301589012146 0.7994177341461182 0.3471057415008545
v -0.561301589012146 0.7994177341461182 0.3471057415008545
v -0.561301589012146 0.7994177341461182 -0.3471056818962097
v -0.561301589012146 0.7994177341461182 -0.3471056818962097
v 0.5613017082214355 0.7994176745414734 -0.3471057415008545
v 0.5613017082214355 0.7994176745414734 -0.3471057415008545
v -0.46309608221054077 -0.00012507192150224 -0.2481987625360489
v -0.4586712419986725 0.004074545111507177 -0.24798592925071716
v -0.4586712419986725 0.004074545111507177 -0.24798592925071716
v -0.4586712419986725 0.004074545111507177 -0.24798592925071716
v -0.46288231015205383 0.004074627533555031 -0.2437748908996582
v -0.46288231015205383 0.004074627533555031 -0.2437748908996582
v -0.4212838113307953 0.7737443447113037 -0.2023564726114273
v -0.41707274317741394 0.7737443447113037 -0.20656751096248627
v -0.41707274317741394 0.7737443447113037 -0.20656751096248627
v -0.5088089108467102 0.00012523877376224846 -0.24819129705429077
v -0.5086698532104492 0.004074631258845329 -0.2437748908996582
v -0.5086698532104492 0.004074631258845329 -0.2437748908996582
v -0.5128774046897888 0.004322809167206287 -0.2479730099439621
v -0.5128774046897888 0.004322809167206287 -0.2479730099439621
v -0.4869292378425598 0.7737443447113037 -0.20656751096248627
v -0.4827216565608978 0.7737443447113037 -0.2023564726114273
v -0.46308860182762146 0.00012523478653747588 -0.2939116954803467
v -0.4628693759441376 0.004322805441915989 -0.2979811728000641
v -0.4628693759441376 0.004322805441915989 -0.2979811728000641
v -0.4586712419986725 0.004074545111507177 -0.2937735617160797
v -0.4586712419986725 0.004074545111507177 -0.2937735617160797
v -0.41707274317741394 0.7737443447113037 -0.2680054008960724
v -0.4212838113307953 0.7737443447113037 -0.2722129821777344
v -0.5088164210319519 0.002601367188617587 -0.2939191460609436
v -0.5128767490386963 0.00705399364233017 -0.293781042098999
v -0.5128767490386963 0.00705399364233017 -0.293781042098999
v -0.5086773037910461 0.00705399364233017 -0.2979804575443268
v -0.5086773037910461 0.00705399364233017 -0.2979804575443268
v -0.4827216565608978 0.7737443447113037 -0.2722129821777344
v -0.4869292378425598 0.7737443447113037 -0.2680054008960724
v -0.46309608221054077 -0.00012507192150224 0.24819879233837128
v -0.4586712419986725 0.004074545111507177 0.24798595905303955
v -0.4586712419986725 0.004074545111507177 0.24798595905303955
v -0.4586712419986725 0.004074545111507177 0.24798595905303955
v -0.46288231015205383 0.004074627533555031 0.2437749207019806
v -0.46288231015205383 0.004074627533555031 0.2437749207019806
v -0.4212838113307953 0.7737443447113037 0.2023565024137497
v -0.41707274317741394 0.7737443447113037 0.20656754076480865
v -0.41707274317741394 0.7737443447113037 0.20656754076480865
v -0.5088089108467102 0.00012523877376224846 0.24819132685661316
v -0.5086698532104492 0.004074631258845329 0.2437749207019806
v -0.5086698532104492 0.004074631258845329 0.2437749207019806
v -0.5128774046897888 0.004322809167206287 0.24797306954860687
v -0.5128774046897888 0.004322809167206287 0.24797306954860687
v -0.4869292378425598 0.7737443447113037 0.20656754076480865
v -0.4827216565608978 0.7737443447113037 0.2023565024137497
v -0.46308860182762146 0.00012523478653747588 0.29391175508499146
v -0.4628693759441376 0.004322805441915989 0.29798123240470886
v -0.4628693759441376 0.004322805441915989 0.29798123240470886
v -0.4586712419986725 0.004074545111507177 0.2937736213207245
v -0.4586712419986725 0.004074545111507177 0.2937736213207245
v -0.41707274317741394 0.7737443447113037 0.26800546050071716
v -0.4212838113307953 0.7737443447113037 0.27221304178237915
v -0.5088164210319519 0.002601367188617587 0.2939192056655884
v -0.5128767490386963 0.00705399364233017 0.2937811017036438
v -0.5128767490386963 0.00705399364233017 0.2937811017036438
v -0.5086773037910461 0.00705399364233017 0.29798051714897156
v -0.5086773037910461 0.00705399364233017 0.29798051714897156
v -0.4827216565608978 0.7737443447113037 0.27221304178237915
v -0.4869292378425598 0.7737443447113037 0.26800546050071716
v 0.46309608221054077 -0.00012515290291048586 -0.24819879233837128
v 0.4586712419986725 0.00407446501776576 -0.24798595905303955
v 0.4586712419986725 0.00407446501776576 -0.24798595905303955
v 0.4586712419986725 0.00407446501776576 -0.24798595905303955
v 0.46288231015205383 0.004074546974152327 -0.2437749207019806
v 0.46288231015205383 0.004074546974152327 -0.2437749207019806
v 0.4212839901447296 0.7737442255020142 -0.2023565024137497
v 0.4170728623867035 0.7737442255020142 -0.20656754076480865
v 0.4170728623867035 0.7737442255020142 -0.20656754076480865
v 0.5088089108467102 0.00012514980335254222 -0.24819132685661316
v 0.5086698532104492 0.004074542783200741 -0.2437749207019806
v 0.5086698532104492 0.004074542783200741 -0.2437749207019806
v 0.5128774046897888 0.004322720691561699 -0.24797306954860687
v 0.5128774046897888 0.004322720691561699 -0.24797306954860687
v 0.48692941665649414 0.7737442255020142 -0.20656754076480865
v 0.4827217757701874 0.7737442255020142 -0.2023565024137497
v 0.46308860182762146 0.00012515380512923002 -0.29391175508499146
v 0.4628693759441376 0.004322724416851997 -0.29798123240470886
v 0.4628693759441376 0.004322724416851997 -0.29798123240470886
v 0.4586712419986725 0.00407446501776576 -0.2937736213207245
v 0.4586712419986725 0.00407446501776576 -0.2937736213207245
v 0.4170728623867035 0.7737442255020142 -0.26800546050071716
v 0.4212839901447296 0.7737442255020142 -0.27221304178237915
v 0.5088164210319519 0.0026012782473117113 -0.2939192056655884
v 0.5128767490386963 0.007053905166685581 -0.2937811017036438
v 0.5128767490386963 0.007053905166685581 -0.2937811017036438
v 0.5086773037910461 0.007053904235363007 -0.29798051714897156
v 0.5086773037910461 0.007053904235363007 -0.29798051714897156
v 0.4827217757701874 0.7737442255020142 -0.27221304178237915
v 0.48692941665649414 0.7737442255020142 -0.26800546050071716
v 0.46309608221054077 -0.00012515290291048586 0.2481987625360489
v 0.4586712419986725 0.00407446501776576 0.24798592925071716
v 0.4586712419986725 0.00407446501776576 0.24798592925071716
v 0.4586712419986725 0.00407446501776576 0.24798592925071716
v 0.46288231015205383 0.004074546974152327 0.2437748908996582
v 0.46288231015205383 0.004074546974152327 0.2437748908996582
v 0.4212839901447296 0.7737442255020142 0.2023564726114273
v 0.4170728623867035 0.7737442255020142 0.20656751096248627
v 0.4170728623867035 0.7737442255020142 0.20656751096248627
v 0.5088089108467102 0.00012514980335254222 0.24819129705429077
v 0.5086698532104492 0.004074542783200741 0.2437748908996582
v 0.5086698532104492 0.004074542783200741 0.2437748908996582
v 0.5128774046897888 0.004322720691561699 0.2479730099439621
v 0.5128774046897888 0.004322720691561699 0.2479730099439621
v 0.48692941665649414 0.7737442255020142 0.20656751096248627
v 0.4827217757701874 0.7737442255020142 0.2023564726114273
v 0.46308860182762146 0.00012515380512923002 0.2939116954803467
v 0.4628693759441376 0.004322724416851997 0.2979811728000641
v 0.4628693759441376 0.004322724416851997 0.2979811728000641
v 0.4586712419986725 0.00407446501776576 0.2937735617160797
v 0.4586712419986725 0.00407446501776576 0.2937735617160797
v 0.4170728623867035 0.7737442255020142 0.2680054008960724
v 0.4212839901447296 0.7737442255020142 0.2722129821777344
v 0.5088164210319519 0.0026012782473117113 0.2939191460609436
v 0.5128767490386963 0.007053905166685581 0.293781042098999
v 0.5128767490386963 0.007053905166685581 0.293781042098999
v 0.5086773037910461 0.007053904235363007 0.2979804575443268
v 0.5086773037910461 0.007053904235363007 0.2979804575443268
v 0.4827217757701874 0.7737442255020142 0.2722129821777344
v 0.48692941665649414 0.7737442255020142 0.2680054008960724
vt 0.40167245268821716 0.894214928150177
vt 0.40621286630630493 0.8949536681175232
vt 0.6657536625862122 0.6375443935394287
vt 0.4016539752483368 0.8625173568725586
vt 0.3847111165523529 0.8402611613273621
vt 0.6055692434310913 0.004670500755310059
vt 0.6115187406539917 0.6197909116744995
vt 0.4061926603317261 0.8617574572563171
vt 0.6339539289474487 0.6375443935394287
vt 0.6656484603881836 0.007378518581390381
vt 0.012152747251093388 0.7816649675369263
vt 0.6663884520530701 0.0028397440910339355
vt 0.011087254621088505 0.004670441150665283
vt 0.029924707487225533 0.7274452447891235
vt 0.6116792559623718 0.02432352304458618
vt 0.012158558703958988 0.7498769164085388
vt 0.6331738233566284 0.002846062183380127
vt 0.63393235206604 0.007387340068817139
vt 0.770624577999115 0.007378637790679932
vt 0.01216720137745142 0.8943954110145569
vt 0.7713645100593567 0.0028397440910339355
vt 0.029920803382992744 0.8401651978492737
vt 0.6055691242218018 0.3587719202041626
vt 0.716655433177948 0.02432352304458618
vt 0.012161181308329105 0.8626075983047485
vt 0.7381499409675598 0.002846062183380127
vt 0.7389083504676819 0.007387340068817139
vt 0.40165260434150696 0.7817571759223938
vt 0.40618544816970825 0.7825009226799011
vt 0.770729124546051 0.6375442743301392
vt 0.011087224818766117 0.3587719202041626
vt 0.3847405016422272 0.7277872562408447
vt 0.7164942026138306 0.61979079246521
vt 0.40621286630630493 0.749304473400116
vt 0.7389295697212219 0.6375442743301392
vt 0.4016667306423187 0.7500593662261963
vt 0.012154177762567997 0.7861161828041077
vt 0.6698796153068542 0.006541252136230469
vt 0.4025113582611084 0.8984474539756775
vt 0.6702032685279846 0.6375420093536377
vt 0.4024861752986908 0.7859877943992615
vt 0.7751787304878235 0.6375418901443481
vt 0.012161181308329105 0.8988465666770935
vt 0.7748554348945618 0.006541132926940918
vt 0.012406931258738041 0.7195277214050293
vt 0.7108272910118103 0.024620771408081055
vt 0.03034304268658161 0.8269791007041931
vt 0.384371280670166 0.9393433928489685
vt 0.6061987280845642 0.7195278406143188
vt 0.7111255526542664 0.6194270253181458
vt 0.012406961061060429 0.36626726388931274
vt 0.8161008954048157 0.6194269061088562
vt 0.38431841135025024 0.8268691897392273
vt 0.03037928231060505 0.9396990537643433
vt 0.6061987280845642 0.3662673234939575
vt 0.8158031105995178 0.024620890617370605
vt 0.3843488395214081 0.9170719981193542
vt 0.688861072063446 0.619438111782074
vt 0.3855555057525635 0.9153670072555542
vt 0.6871607303619385 0.620637834072113
vt 0.029131250455975533 0.8030114769935608
vt 0.6868540644645691 0.023427844047546387
vt 0.688564121723175 0.024631917476654053
vt 0.030336039140820503 0.8047090172767639
vt 0.0291509497910738 0.9157310128211975
vt 0.7918301224708557 0.023427963256835938
vt 0.03035701997578144 0.9174277186393738
vt 0.7935400605201721 0.024631917476654053
vt 0.3855195939540863 0.8028950095176697
vt 0.7921363711357117 0.6206377148628235
vt 0.7938364148139954 0.6194379925727844
vt 0.3843116760253906 0.8045991063117981
vt 0.40245914459228516 0.8580188155174255
vt 0.6292611956596375 0.6375430226325989
vt 0.012152747251093388 0.745182991027832
vt 0.6294316649436951 0.006580531597137451
vt 0.4024774432182312 0.7455585598945618
vt 0.7342367768287659 0.6375429034233093
vt 0.012162701226770878 0.8579140901565552
vt 0.734407901763916 0.006580531597137451
vt 0.10798311233520508 0.9836868047714233
vt 0.11135810613632202 0.9843677282333374
vt 0.4130959212779999 0.8591962456703186
vt 0.41309598088264465 0.724762499332428
vt 0.10861256718635559 0.9871084690093994
vt 0.41309598088264465 0.7282764315605164
vt 0.8446959853172302 0.7282764315605164
vt 0.8446959853172302 0.8591962456703186
vt 0.8446959853172302 0.7247626185417175
vt 0.08240637183189392 0.9835448265075684
vt 0.08189401030540466 0.9867850542068481
vt 0.41309598088264465 0.7583737373352051
vt 0.07921698689460754 0.9840900897979736
vt 0.41309598088264465 0.7618851065635681
vt 0.8446959853172302 0.7618851065635681
vt 0.8446959853172302 0.7583737373352051
vt 0.1080673336982727 0.9579901695251465
vt 0.1086350679397583 0.954716682434082
vt 0.4130959212779999 0.8255874514579773
vt 0.11135810613632202 0.9574859142303467
vt 0.4130959212779999 0.8290987014770508
vt 0.8446959853172302 0.8290988206863403
vt 0.8446959853172302 0.8255874514579773
vt 0.08244755864143372 0.957933783531189
vt 0.07916149497032166 0.9573248624801636
vt 0.41309598088264465 0.7919825911521912
vt 0.08184197545051575 0.9546453952789307
vt 0.41309598088264465 0.7954900860786438
vt 0.8446959853172302 0.7954900860786438
vt 0.8446959853172302 0.7919825911521912
vt 0.22168640792369843 0.9602581262588501
vt 0.22506140172481537 0.959577202796936
vt 0.8585572242736816 0.4374830722808838
vt 0.9929912090301514 0.4374830722808838
vt 0.22231583297252655 0.956836462020874
vt 0.9894774556159973 0.4374830722808838
vt 0.9894774556159973 0.005878567695617676
vt 0.8585572242736816 0.005878567695617676
vt 0.9929912090301514 0.005878567695617676
vt 0.19610978662967682 0.9604001045227051
vt 0.19559736549854279 0.9571599960327148
vt 0.9593797326087952 0.4374830722808838
vt 0.19292040169239044 0.9598548412322998
vt 0.9558686017990112 0.4374830722808838
vt 0.9558687210083008 0.005878567695617676
vt 0.9593798518180847 0.005878627300262451
vt 0.22177062928676605 0.9859548807144165
vt 0.22233836352825165 0.9892281293869019
vt 0.8921660780906677 0.4374830722808838
vt 0.22506140172481537 0.9864588975906372
vt 0.888654887676239 0.4374830722808838
vt 0.888654887676239 0.005878567695617676
vt 0.8921660780906677 0.005878567695617676
vt 0.1961509734392166 0.9860111474990845
vt 0.19286485016345978 0.986620306968689
vt 0.9257709980010986 0.4374830722808838
vt 0.19554533064365387 0.9892995357513428
vt 0.9222634434700012 0.4374830722808838
vt 0.9222634434700012 0.005878567695617676
vt 0.9257709980010986 0.005878567695617676
vt 0.0542045533657074 0.9604855179786682
vt 0.05757942795753479 0.9598045349121094
vt 0.8569121956825256 0.44137275218963623
vt 0.9913461208343506 0.44137275218963623
vt 0.05483400821685791 0.9570637941360474
vt 0.860426127910614 0.44137275218963623
vt 0.860426127910614 0.8729779124259949
vt 0.8569121956825256 0.8729779124259949
vt 0.9913461208343506 0.8729779124259949
vt 0.02862781286239624 0.9606274962425232
vt 0.028115451335906982 0.9573873281478882
vt 0.8905237317085266 0.44137275218963623
vt 0.02543848752975464 0.9600823521614075
vt 0.8940349221229553 0.44137275218963623
vt 0.8940349221229553 0.8729779124259949
vt 0.8905236124992371 0.8729779124259949
vt 0.054288655519485474 0.9861821532249451
vt 0.05485638976097107 0.9894555807113647
vt 0.9577372670173645 0.44137275218963623
vt 0.05757942795753479 0.9866864085197449
vt 0.961248517036438 0.44137275218963623
vt 0.961248517036438 0.8729779124259949
vt 0.9577372670173645 0.8729779124259949
vt 0.02866894006729126 0.9862384796142578
vt 0.0253828763961792 0.986847460269928
vt 0.9241324663162231 0.44137275218963623
vt 0.02806335687637329 0.9895269274711609
vt 0.9276400208473206 0.44137275218963623
vt 0.9276400208473206 0.8729779124259949
vt 0.9241324663162231 0.8729779124259949
vt 0.16398490965366364 0.9857889413833618
vt 0.16732265055179596 0.9864399433135986
vt 0.8457185626029968 0.9976667165756226
vt 0.8457185626029968 0.8632330894470215
vt 0.16463054716587067 0.9891294240951538
vt 0.8457185626029968 0.9941530823707581
vt 0.4141174554824829 0.9941530823707581
vt 0.4141174554824829 0.9976667165756226
vt 0.4141174554824829 0.8632330894470215
vt 0.1383688598871231 0.9857972860336304
vt 0.13783536851406097 0.9890919923782349
vt 0.8457185626029968 0.9640554785728455
vt 0.13514728844165802 0.9863482713699341
vt 0.8457185626029968 0.9605442881584167
vt 0.4141174554824829 0.9605442881584167
vt 0.4141174554824829 0.9640554785728455
vt 0.1640448123216629 0.9601683616638184
vt 0.1646498292684555 0.9569296836853027
vt 0.8457185626029968 0.896841824054718
vt 0.16732265055179596 0.959688663482666
vt 0.8457185626029968 0.8933306336402893
vt 0.4141174554824829 0.8933306336402893
vt 0.4141174554824829 0.896841824054718
vt 0.13838545978069305 0.9601335525512695
vt 0.13509197533130646 0.959522008895874
vt 0.8457185626029968 0.9304466843605042
vt 0.13778050243854523 0.956836462020874
vt 0.8457185626029968 0.9269391894340515
vt 0.4141174554824829 0.9269391894340515
vt 0.4141174554824829 0.9304466843605042
vn 0.9999999996302062 -0.000011295080180759674 0.00002473881430882228
vn 0.00003939866546881998 0.000004768371009842055 0.9999999992125038
vn 0.00003939866546881998 0.000004768371009842055 0.9999999992125038
vn 0.9999999994342144 -0.000015136873100885761 0.000030040742740368057
vn -0.0000031111489988520743 0.9999999999945968 -0.0000010617898169527433
vn -0.0000031111489988520743 0.9999999999945968 -0.0000010617898169527433
vn -0.0000031111489988520743 0.9999999999945968 -0.0000010617898169527433
vn -0.00001507185332298852 0.000024825336018185966 0.9999999995782709
vn -0.00001507185332298852 0.000024825336018185966 0.9999999995782709
vn -0.000023091028188006277 -0.000015914440148771224 0.9999999996067677
vn -0.999999999336449 -8.940696710375986e-7 0.00003641843793359818
vn -0.999999999336449 -8.940696710375986e-7 0.00003641843793359818
vn -9.746379419074283e-7 0.9999999999989615 -0.0000010617902717047288
vn -9.746379419074283e-7 0.9999999999989615 -0.0000010617902717047288
vn -9.746379419074283e-7 0.9999999999989615 -0.0000010617902717047288
vn -0.9999999995526638 0.000026524066913183655 -0.00001382557001597877
vn -0.9999999995526638 0.000026524066913183655 -0.00001382557001597877
vn -0.000028997659667500126 -0.000015616416922682492 0.9999999994576316
vn 0.00002148170278151154 -0.000012516975398963422 -0.999999999690931
vn 0.999999999099983 0.0000040829184068004635 -0.00004222989330245443
vn 0.999999999099983 0.0000040829184068004635 -0.00004222989330245443
vn -0.000003128124717460409 0.9999999999945439 0.000001061789930639525
vn -0.000003128124717460409 0.9999999999945439 0.000001061789930639525
vn -0.000003128124717460409 0.9999999999945439 0.000001061789930639525
vn 0.9999999995201925 0.000028312206254726137 0.000012571164910121326
vn 0.9999999995201925 0.000028312206254726137 0.000012571164910121326
vn 0.000025957822787821344 -0.000015494499159299565 -0.999999999543056
vn -0.999999999676296 -0.000017464160913536237 -0.00001850435546058543
vn -0.00004169344898411734 0.000001192092894470832 -0.9999999991301176
vn -0.00004169344898411734 0.000001192092894470832 -0.9999999991301176
vn -9.916135468291482e-7 0.9999999999989448 0.000001061790271704711
vn -9.916135468291482e-7 0.9999999999989448 0.000001061790271704711
vn -9.916135468291482e-7 0.9999999999989448 0.000001061790271704711
vn 0.000012836678246422874 0.00002628564833470075 -0.9999999995721423
vn 0.000012836678246422874 0.00002628564833470075 -0.9999999995721423
vn -0.99999999949551 -0.000015193769278605149 -0.00002789497374081008
vn -0.000020459294314845717 -0.9999999997894788 0.0000015683472153222956
vn -0.000020459294314845717 -0.9999999997894788 0.0000015683472153222956
vn 0.000008508563546822589 -0.9999999997632585 0.000020027161833501857
vn 0.000008508563546822589 -0.9999999997632585 0.000020027161833501857
vn -0.000004544854434272021 -0.9999999998358697 -0.000017538667767666128
vn -0.000004544854434272021 -0.9999999998358697 -0.000017538667767666128
vn 0.000019460918834872757 -0.999999999783433 -0.000007376075668653916
vn 0.000019460918834872757 -0.999999999783433 -0.000007376075668653916
vn -8.946786778096758e-8 -0.999999999999996 0
vn -5.632536550941864e-8 0 -0.9999999999999984
vn 1 0 0
vn -1 0 0
vn -8.946786778096758e-8 -0.999999999999996 0
vn -5.632536550941864e-8 0 -0.9999999999999984
vn -8.946786778096758e-8 -0.999999999999996 0
vn 5.632536550941864e-8 0 0.9999999999999984
vn 1 0 0
vn -1 0 0
vn -8.946786778096758e-8 -0.999999999999996 0
vn 5.632536550941864e-8 0 0.9999999999999984
vn -0.9999999992471782 0.000038802623719567834 0
vn -5.960464832762912e-8 -0.000003993511437951151 -0.9999999999920242
vn -0.000005570444377361526 -0.9999999999549036 -0.00000769173539420461
vn -0.000005570444377361526 -0.9999999999549036 -0.00000769173539420461
vn 0.000006301372195287058 -0.9999999999512876 -0.000007597191142479547
vn 0.000006301372195287058 -0.9999999999512876 -0.000007597191142479547
vn -1.1547126632607838e-7 -0.000002682209014882912 -0.9999999999963962
vn 0.9999999992431243 0.00003890693184768852 -4.4703483547707986e-8
vn -0.000005416106432503104 -0.9999999999680191 0.000005884532583689252
vn -0.000005416106432503104 -0.9999999999680191 0.000005884532583689252
vn -0.9999999992746762 0.000038087367983848935 0
vn -1.1798921838850702e-8 -0.000010937452315629967 0.9999999999401861
vn 0.000006170710916341991 -0.9999999999644209 0.000005751572077051631
vn 0.000006170710916341991 -0.9999999999644209 0.000005751572077051631
vn 4.470348357951005e-8 -0.00000953674316362881 0.9999999999545244
vn 0.9999999992724042 0.000038146972628494424 0
vn 0.000013038516043115477 0.9999999998848625 -0.000007763504981100758
vn 0.000013038516043115477 0.9999999998848625 -0.000007763504981100758
vn 0.000006504356860506629 0.9999999999065436 0.000012025237082311224
vn 0.000006504356860506629 0.9999999999065436 0.000012025237082311224
vn -0.000013992191193149885 0.9999999998661646 0.00000847876122353811
vn -0.000013992191193149885 0.9999999998661646 0.00000847876122353811
vn -0.00001057237449555625 0.9999999998447568 -0.000014096499327408333
vn -0.00001057237449555625 0.9999999998447568 -0.000014096499327408333
vn 0.0527033187495003 -0.9972175046500316 0.05272199363029613
vn 0.9985414681704238 -0.053990148679212306 0.00001377139242206698
vn 0.9985414681704238 -0.053990148679212306 0.00001377139242206698
vn 0.9985414681704238 -0.053990148679212306 0.00001377139242206698
vn 0.000011235476341001303 -0.05368802334084869 0.9985577579807371
vn 0.000011235476341001303 -0.05368802334084869 0.9985577579807371
vn -0.00001692775981628328 -0.053739346680557284 0.9985549971492796
vn 0.9985334005030618 -0.05413915441910641 0.000006210975528932602
vn 0.9985334005030618 -0.05413915441910641 0.000006210975528932602
vn -0.10781145738575958 -0.992978751254194 0.04868150792672915
vn 0.000012394198131795527 -0.053726222002529425 0.9985557034616139
vn 0.000012394198131795527 -0.053726222002529425 0.9985557034616139
vn -0.9994316682304117 0.03369880433236972 0.000855058328368885
vn -0.9994316682304117 0.03369880433236972 0.000855058328368885
vn -0.9994308182122309 0.033724286801381655 0.000843852693698352
vn -0.000011427618647118838 -0.053743152015314336 0.9985547924279711
vn 0.04864313043934405 -0.9929811447396967 -0.10780673472702226
vn 0.0008339993823877056 0.03347343273912631 -0.999439259657979
vn 0.0008339993823877056 0.03347343273912631 -0.999439259657979
vn 0.9985425080582305 -0.053970901041185126 -0.000037968157232626976
vn 0.9985425080582305 -0.053970901041185126 -0.000037968157232626976
vn 0.9985429335364564 -0.05396303689513818 0.00002309680051390766
vn 0.0008239907884380127 0.03350106243377898 -0.9994383421977509
vn -0.11214593805131151 -0.9873382395590682 -0.11218952394493584
vn -0.9994320208520657 0.03368842579907091 0.0008518584017291003
vn -0.9994320208520657 0.03368842579907091 0.0008518584017291003
vn 0.0008552968676809421 0.03345686638173086 -0.9994397963655356
vn 0.0008552968676809421 0.03345686638173086 -0.9994397963655356
vn 0.0008602440708174347 0.033507728453606826 -0.9994380881845648
vn -0.9994247514266361 0.03390337714927846 0.0008527916980077636
vn 0.05272942572043034 -0.9972174963699147 -0.052696039670101384
vn 0.9985420049432979 -0.053980216571304 -0.00002413987955188004
vn 0.9985420049432979 -0.053980216571304 -0.00002413987955188004
vn 0.9985420049432979 -0.053980216571304 -0.00002413987955188004
vn -0.000025697627160132273 -0.05372357723805092 -0.9985558455030841
vn -0.000025697627160132273 -0.05372357723805092 -0.9985558455030841
vn -0.000021093438616040152 -0.05381524337322072 -0.998550909636433
vn 0.9985415941104075 -0.053987819228978495 -0.00001436472025636203
vn 0.9985415941104075 -0.053987819228978495 -0.00001436472025636203
vn -0.10785079553662959 -0.9929764092374447 -0.04864212783202552
vn -0.000011682510813881461 -0.05370084397620286 -0.998557068584346
vn -0.000011682510813881461 -0.05370084397620286 -0.998557068584346
vn -0.9994313906492447 0.0337068167003587 -0.0008636508815901442
vn -0.9994313906492447 0.0337068167003587 -0.0008636508815901442
vn -0.9994307526180689 0.033726225761453815 -0.0008440480838729111
vn -0.000011235476808246294 -0.05374265323665192 -0.9985548192747602
vn 0.04862957249632823 -0.9929804397364838 0.10781934418073535
vn 0.0008346438969027037 0.03347379194236005 0.9994392470893689
vn 0.0008346438969027037 0.03347379194236005 0.9994392470893689
vn 0.9985406639691793 -0.05400502167299563 0.000005838631649101099
vn 0.9985406639691793 -0.05400502167299563 0.000005838631649101099
vn 0.9985429823035715 -0.053962134789190395 -0.00002238934433984479
vn 0.0008234381629047171 0.03350648264966729 0.9994381609534626
vn -0.11218228724649874 -0.9873381666918323 0.11215381857857475
vn -0.9994313246770637 0.03370953222243112 -0.0008334816104262118
vn -0.9994313246770637 0.03370953222243112 -0.0008334816104262118
vn 0.0008454173958877042 0.03346785964554199 0.9994394367044824
vn 0.0008454173958877042 0.03346785964554199 0.9994394367044824
vn 0.000863934271839745 0.03361734178087844 0.9994344040251775
vn -0.9994309640235282 0.03371989587870772 -0.0008466244329855645
vn -0.052729340915405744 -0.9972174641925154 0.05269673344787244
vn -0.9985420304211893 -0.05397974483676524 0.000025093554446045816
vn -0.9985420304211893 -0.05397974483676524 0.000025093554446045816
vn -0.9985420304211893 -0.05397974483676524 0.000025093554446045816
vn 0.000026432082320844972 -0.05372267935271712 0.9985558937908835
vn 0.000026432082320844972 -0.05372267935271712 0.9985558937908835
vn 0.00002687492987627607 -0.053928326623063724 0.9985448086417427
vn -0.9985416001398599 -0.05398770779625455 0.00001403689477510387
vn -0.9985416001398599 -0.05398770779625455 0.00001403689477510387
vn 0.10785073643336196 -0.9929764048611067 0.048642348215240876
vn 0.000010162591779564981 -0.05370071448628387 0.9985570755647293
vn 0.000010162591779564981 -0.05370071448628387 0.9985570755647293
vn 0.9994314115346546 0.033706157733208675 0.0008651986547127381
vn 0.9994314115346546 0.033706157733208675 0.0008651986547127381
vn 0.9994308573298099 0.03372307568795024 0.0008459214773673847
vn 0.0000094175464891486 -0.0537427657052749 0.9985548132404438
vn -0.04862984060865673 -0.9929804210570904 -0.10781939528517245
vn -0.0008320212306034084 0.033474292372112295 -0.9994392325153432
vn -0.0008320212306034084 0.033474292372112295 -0.9994392325153432
vn -0.9985406202134357 -0.054005830416509804 -0.000008049249868886807
vn -0.9985406202134357 -0.054005830416509804 -0.000008049249868886807
vn -0.998542839515915 -0.053964778471091546 0.000018331920622832367
vn -0.0008193254438767986 0.033506531137259425 -0.999438162707911
vn 0.11218222942311838 -0.9873381823690858 -0.11215373840300062
vn 0.9994313392917558 0.03370912837361468 0.0008322894799786155
vn 0.9994313392917558 0.03370912837361468 0.0008322894799786155
vn -0.0008467324559949606 0.03346845698087247 -0.9994394155882925
vn -0.0008467324559949606 0.03346845698087247 -0.9994394155882925
vn -0.0008596000753531704 0.03343452478153805 -0.9994405403226063
vn 0.9994309727664772 0.033719683832123336 0.0008447468939349764
vn -0.05270333604330974 -0.9972174685518344 -0.05272265912278145
vn -0.9985414919108969 -0.05398970937352089 -0.000014632940549813456
vn -0.9985414919108969 -0.05398970937352089 -0.000014632940549813456
vn -0.9985414919108969 -0.05398970937352089 -0.000014632940549813456
vn -0.000010460614997502602 -0.05368741519291256 -0.9985577906863876
vn -0.000010460614997502602 -0.05368741519291256 -0.9985577906863876
vn 0.000016659540915982024 -0.053739353077771994 -0.9985549968095108
vn -0.9985354230936029 -0.05410183698056976 -0.00000791248636866842
vn -0.9985354230936029 -0.05410183698056976 -0.00000791248636866842
vn 0.10781139111537635 -0.9929787494652081 -0.04868169118137613
vn -0.000013558375162606084 -0.05372601078995117 -0.9985557148105298
vn -0.000013558375162606084 -0.05372601078995117 -0.9985557148105298
vn 0.9994316776682305 0.03369848657955871 -0.0008565486056467744
vn 0.9994316776682305 0.03369848657955871 -0.0008565486056467744
vn 0.9994308264284693 0.03372399851725442 -0.0008456408902892637
vn 0.00000963459019239281 -0.05374262826753182 -0.9985548206353382
vn -0.04864335377953999 -0.9929811411216612 0.10780666727898688
vn -0.0008317698247894002 0.03347423855647603 0.9994392345270534
vn -0.0008317698247894002 0.03347423855647603 0.9994392345270534
vn -0.9985424891329161 -0.05397124918823052 0.000040709974873264586
vn -0.9985424891329161 -0.05397124918823052 0.000040709974873264586
vn -0.998542945262639 -0.053962821461995894 -0.000019133091747174177
vn -0.0008203258783411588 0.033513249975505956 0.999437936613141
vn 0.11214598406737286 -0.9873382511150874 0.11218937624642228
vn 0.9994320355945875 0.03368801107259168 -0.0008509625327207427
vn 0.9994320355945875 0.03368801107259168 -0.0008509625327207427
vn -0.0008566379159306803 0.03345701319506384 0.9994397903023204
vn -0.0008566379159306803 0.03345701319506384 0.9994397903023204
vn -0.0008620918203961919 0.03350749024938616 0.999438094578589
vn 0.9994309739775985 0.03371964632338586 -0.0008448112300776891
f 20/20/20 25/25/25 4/4/4
f 20/20/20 4/4/4 1/1/1
f 30/30/30 35/35/35 27/27/27
f 30/30/30 27/27/27 19/19/19
f 31/31/31 13/13/13 6/6/6
f 31/31/31 6/6/6 23/23/23
f 3/3/3 9/9/9 18/18/18
f 3/3/3 18/18/18 10/10/10
f 11/11/11 16/16/16 36/36/36
f 11/11/11 36/36/36 28/28/28
f 39/39/39 1/1/1 2/2/2
f 4/4/4 73/73/73 8/8/8
f 38/38/38 10/10/10 12/12/12
f 76/76/76 17/17/17 18/18/18
f 44/44/44 19/19/19 21/21/21
f 80/80/80 26/26/26 27/27/27
f 41/41/41 28/28/28 29/29/29
f 77/77/77 34/34/34 36/36/36
f 38/38/38 40/40/40 3/3/3
f 38/38/38 3/3/3 10/10/10
f 1/1/1 4/4/4 8/8/8
f 1/1/1 8/8/8 2/2/2
f 74/74/74 76/76/76 18/18/18
f 74/74/74 18/18/18 9/9/9
f 17/17/17 12/12/12 10/10/10
f 17/17/17 10/10/10 18/18/18
f 41/41/41 37/37/37 11/11/11
f 41/41/41 11/11/11 28/28/28
f 75/75/75 77/77/77 36/36/36
f 75/75/75 36/36/36 16/16/16
f 34/34/34 29/29/29 28/28/28
f 34/34/34 28/28/28 36/36/36
f 44/44/44 42/42/42 30/30/30
f 44/44/44 30/30/30 19/19/19
f 78/78/78 80/80/80 27/27/27
f 78/78/78 27/27/27 35/35/35
f 26/26/26 21/21/21 19/19/19
f 26/26/26 19/19/19 27/27/27
f 39/39/39 43/43/43 20/20/20
f 39/39/39 20/20/20 1/1/1
f 79/79/79 73/73/73 4/4/4
f 79/79/79 4/4/4 25/25/25
f 67/67/67 57/57/57 48/48/48
f 67/67/67 48/48/48 54/54/54
f 66/66/66 70/70/70 42/42/42
f 66/66/66 42/42/42 44/44/44
f 71/71/71 68/68/68 56/56/56
f 71/71/71 56/56/56 52/52/52
f 62/62/62 60/60/60 40/40/40
f 62/62/62 40/40/40 38/38/38
f 45/45/45 51/51/51 55/55/55
f 45/45/45 55/55/55 49/49/49
f 59/59/59 65/65/65 43/43/43
f 59/59/59 43/43/43 39/39/39
f 64/64/64 72/72/72 53/53/53
f 64/64/64 53/53/53 47/47/47
f 69/69/69 61/61/61 37/37/37
f 69/69/69 37/37/37 41/41/41
f 63/63/63 58/58/58 60/60/60
f 63/63/63 60/60/60 62/62/62
f 72/72/72 64/64/64 61/61/61
f 72/72/72 61/61/61 69/69/69
f 68/68/68 71/71/71 70/70/70
f 68/68/68 70/70/70 66/66/66
f 57/57/57 67/67/67 65/65/65
f 57/57/57 65/65/65 59/59/59
f 58/58/58 63/63/63 46/46/46
f 58/58/58 46/46/46 50/50/50
f 7/7/7 15/15/15 76/76/76
f 7/7/7 76/76/76 74/74/74
f 14/14/14 32/32/32 77/77/77
f 14/14/14 77/77/77 75/75/75
f 33/33/33 24/24/24 80/80/80
f 33/33/33 80/80/80 78/78/78
f 22/22/22 5/5/5 73/73/73
f 22/22/22 73/73/73 79/79/79
f 101/101/101 102/102/102 88/88/88
f 101/101/101 88/88/88 83/83/83
f 108/108/108 109/109/109 103/103/103
f 108/108/108 103/103/103 99/99/99
f 94/94/94 95/95/95 110/110/110
f 94/94/94 110/110/110 106/106/106
f 86/86/86 87/87/87 96/96/96
f 86/86/86 96/96/96 92/92/92
f 81/81/81 82/82/82 85/85/85
f 90/90/90 91/91/91 93/93/93
f 97/97/97 98/98/98 100/100/100
f 104/104/104 105/105/105 107/107/107
f 90/90/90 81/81/81 85/85/85
f 90/90/90 85/85/85 91/91/91
f 84/84/84 89/89/89 87/87/87
f 84/84/84 87/87/87 86/86/86
f 95/95/95 94/94/94 92/92/92
f 95/95/95 92/92/92 96/96/96
f 104/104/104 90/90/90 93/93/93
f 104/104/104 93/93/93 105/105/105
f 109/109/109 108/108/108 106/106/106
f 109/109/109 106/106/106 110/110/110
f 97/97/97 104/104/104 107/107/107
f 97/97/97 107/107/107 98/98/98
f 102/102/102 101/101/101 99/99/99
f 102/102/102 99/99/99 103/103/103
f 81/81/81 97/97/97 100/100/100
f 81/81/81 100/100/100 82/82/82
f 90/90/90 104/104/104 97/97/97
f 90/90/90 97/97/97 81/81/81
f 131/131/131 113/113/113 118/118/118
f 131/131/131 118/118/118 132/132/132
f 138/138/138 129/129/129 133/133/133
f 138/138/138 133/133/133 139/139/139
f 124/124/124 136/136/136 140/140/140
f 124/124/124 140/140/140 125/125/125
f 116/116/116 122/122/122 126/126/126
f 116/116/116 126/126/126 117/117/117
f 111/111/111 115/115/115 112/112/112
f 120/120/120 123/123/123 121/121/121
f 127/127/127 130/130/130 128/128/128
f 134/134/134 137/137/137 135/135/135
f 120/120/120 121/121/121 115/115/115
f 120/120/120 115/115/115 111/111/111
f 114/114/114 116/116/116 117/117/117
f 114/114/114 117/117/117 119/119/119
f 125/125/125 126/126/126 122/122/122
f 125/125/125 122/122/122 124/124/124
f 134/134/134 135/135/135 123/123/123
f 134/134/134 123/123/123 120/120/120
f 139/139/139 140/140/140 136/136/136
f 139/139/139 136/136/136 138/138/138
f 127/127/127 128/128/128 137/137/137
f 127/127/127 137/137/137 134/134/134
f 132/132/132 133/133/133 129/129/129
f 132/132/132 129/129/129 131/131/131
f 111/111/111 112/112/112 130/130/130
f 111/111/111 130/130/130 127/127/127
f 120/120/120 111/111/111 127/127/127
f 120/120/120 127/127/127 134/134/134
f 161/161/161 144/144/144 149/149/149
f 161/161/161 149/149/149 162/162/162
f 168/168/168 159/159/159 163/163/163
f 168/168/168 163/163/163 169/169/169
f 154/154/154 166/166/166 170/170/170
f 154/154/154 170/170/170 155/155/155
f 146/146/146 152/152/152 156/156/156
f 146/146/146 156/156/156 147/147/147
f 141/141/141 145/145/145 142/142/142
f 150/150/150 153/153/153 151/151/151
f 157/157/157 160/160/160 158/158/158
f 164/164/164 167/167/167 165/165/165
f 150/150/150 151/151/151 145/145/145
f 150/150/150 145/145/145 141/141/141
f 143/143/143 146/146/146 147/147/147
f 143/143/143 147/147/147 148/148/148
f 155/155/155 156/156/156 152/152/152
f 155/155/155 152/152/152 154/154/154
f 164/164/164 165/165/165 153/153/153
f 164/164/164 153/153/153 150/150/150
f 169/169/169 170/170/170 166/166/166
f 169/169/169 166/166/166 168/168/168
f 157/157/157 158/158/158 167/167/167
f 157/157/157 167/167/167 164/164/164
f 162/162/162 163/163/163 159/159/159
f 162/162/162 159/159/159 161/161/161
f 141/141/141 142/142/142 160/160/160
f 141/141/141 160/160/160 157/157/157
f 150/150/150 141/141/141 157/157/157
f 150/150/150 157/157/157 164/164/164
f 191/191/191 192/192/192 179/179/179
f 191/191/191 179/179/179 174/174/174
f 198/198/198 199/199/199 193/193/193
f 198/198/198 193/193/193 189/189/189
f 184/184/184 185/185/185 200/200/200
f 184/184/184 200/200/200 196/196/196
f 176/176/176 177/177/177 186/186/186
f 176/176/176 186/186/186 182/182/182
f 171/171/171 172/172/172 175/175/175
f 180/180/180 181/181/181 183/183/183
f 187/187/187 188/188/188 190/190/190
f 194/194/194 195/195/195 197/197/197
f 180/180/180 171/171/171 175/175/175
f 180/180/180 175/175/175 181/181/181
f 173/173/173 178/178/178 177/177/177
f 173/173/173 177/177/177 176/176/176
f 185/185/185 184/184/184 182/182/182
f 185/185/185 182/182/182 186/186/186
f 194/194/194 180/180/180 183/183/183
f 194/194/194 183/183/183 195/195/195
f 199/199/199 198/198/198 196/196/196
f 199/199/199 196/196/196 200/200/200
f 187/187/187 194/194/194 197/197/197
f 187/187/187 197/197/197 188/188/188
f 192/192/192 191/191/191 189/189/189
f 192/192/192 189/189/189 193/193/193
f 171/171/171 187/187/187 190/190/190
f 171/171/171 190/190/190 172/172/172
f 180/180/180 194/194/194 187/187/187
f 180/180/180 187/187/187 171/171/171
